<?xml version="1.0" encoding="UTF-8"?>
<svg version="1.1" xmlns="http://www.w3.org/2000/svg" width="1024" height="1024">
<path d="M0 0 C337.92 0 675.84 0 1024 0 C1024 337.92 1024 675.84 1024 1024 C686.08 1024 348.16 1024 0 1024 C0 686.08 0 348.16 0 0 Z " fill="#D3D8DC" transform="translate(0,0)"/>
<path d="M0 0 C12.74307113 -0.02255841 25.48612908 -0.0409194 38.22921562 -0.05181217 C44.14581924 -0.05703915 50.06240853 -0.06413347 55.97900391 -0.07543945 C61.68480699 -0.08627487 67.39059627 -0.09227823 73.09640884 -0.09487724 C75.27738792 -0.09673031 77.45836622 -0.10034866 79.63933945 -0.10573006 C82.68519497 -0.11294914 85.73099282 -0.11399057 88.77685547 -0.11352539 C89.68603729 -0.11712067 90.59521912 -0.12071594 91.5319519 -0.12442017 C97.77189568 -0.11405216 97.77189568 -0.11405216 100 1 C100 8.26 100 15.52 100 23 C99.34 23 98.68 23 98 23 C98 23.66 98 24.32 98 25 C97.34 25 96.68 25 96 25 C95.78859375 25.67546875 95.5771875 26.3509375 95.359375 27.046875 C93.5510838 30.97523174 91.01469412 33.949654 88.25 37.25 C87.67725342 37.94456299 87.10450684 38.63912598 86.5144043 39.35473633 C84.68215141 41.5747676 82.84157402 43.78769759 81 46 C78.60106124 48.89327333 76.20617738 51.78987321 73.8125 54.6875 C73.23048828 55.38963623 72.64847656 56.09177246 72.04882812 56.81518555 C67.49056112 62.33765193 63.14709478 67.99639662 58.890625 73.75390625 C58.26671875 74.49511719 57.6428125 75.23632812 57 76 C56.34 76 55.68 76 55 76 C54.75765625 76.55171875 54.5153125 77.1034375 54.265625 77.671875 C52.72388829 80.50790919 50.82612719 82.77842001 48.75 85.25 C44.98626277 89.74052787 41.53231678 94.2902443 38 99 C52.19 99 66.38 99 81 99 C81.99 96.03 82.98 93.06 84 90 C85.08083389 87.62409839 86.21314039 85.27086214 87.3984375 82.9453125 C87.71527496 82.31825409 88.03211243 81.69119568 88.35855103 81.0451355 C89.35827142 79.06876826 90.36609253 77.09669069 91.375 75.125 C92.69847759 72.52503599 94.01834986 69.92326597 95.3359375 67.3203125 C95.6546582 66.69146149 95.97337891 66.06261047 96.30175781 65.41470337 C98.64126027 60.7741891 100.82980946 56.08045559 102.94970703 51.33642578 C104.31053086 48.30920959 105.7625747 45.34202205 107.25 42.375 C108.00023437 40.87066406 108.00023437 40.87066406 108.765625 39.3359375 C110 37 110 37 111 36 C113.79993597 35.89896745 116.57468644 35.86029912 119.375 35.8671875 C120.21466309 35.86623077 121.05432617 35.86527405 121.91943359 35.86428833 C123.69824295 35.86360652 125.47705477 35.86546083 127.25585938 35.86962891 C129.98833776 35.87497717 132.72065176 35.86968395 135.453125 35.86328125 C137.1770837 35.86394203 138.90104229 35.86522319 140.625 35.8671875 C141.44790527 35.86516327 142.27081055 35.86313904 143.11865234 35.86105347 C148.88504946 35.88504946 148.88504946 35.88504946 150 37 C150.09983058 38.98757028 150.13080753 40.9786752 150.1328125 42.96875 C150.13410156 44.17917969 150.13539063 45.38960938 150.13671875 46.63671875 C150.13285156 47.91160156 150.12898437 49.18648438 150.125 50.5 C150.12886719 51.77488281 150.13273438 53.04976563 150.13671875 54.36328125 C150.13478516 56.17892578 150.13478516 56.17892578 150.1328125 58.03125 C150.13168457 59.15080078 150.13055664 60.27035156 150.12939453 61.42382812 C150 64 150 64 149 65 C147.36743242 65.15714654 145.72864662 65.25085414 144.08984375 65.31640625 C143.10048828 65.35830078 142.11113281 65.40019531 141.09179688 65.44335938 C140.05087891 65.48267578 139.00996094 65.52199219 137.9375 65.5625 C136.89271484 65.60568359 135.84792969 65.64886719 134.77148438 65.69335938 C132.18113116 65.79981225 129.59067814 65.9018276 127 66 C121.81153198 76.24313601 116.7877745 86.55770398 111.8581543 96.92797852 C109.89753482 101.04923703 107.929704 105.15922637 105.8515625 109.22265625 C104.5943183 111.71238074 103.49456546 114.19988242 102.5078125 116.80859375 C102.05148437 118.00613281 101.59515625 119.20367188 101.125 120.4375 C100.67382812 121.65308594 100.22265625 122.86867188 99.7578125 124.12109375 C98 127 98 127 95.46627808 127.6728363 C91.22231796 128.0734013 87.04203635 128.13158683 82.78173828 128.11352539 C81.87378006 128.11367142 80.96582184 128.11381744 80.03034973 128.1139679 C77.04364594 128.11327391 74.05700533 128.10550563 71.0703125 128.09765625 C68.99380528 128.09579024 66.91729761 128.0943672 64.84078979 128.09336853 C59.38609595 128.08955774 53.9314289 128.07973975 48.47674561 128.06866455 C42.90637576 128.05841949 37.33600156 128.05386428 31.765625 128.04882812 C20.84373825 128.03811617 9.92187136 128.02105704 -1 128 C-1.11110016 123.46764566 -1.17859394 118.93564373 -1.23828125 114.40234375 C-1.28619812 112.48004944 -1.28619812 112.48004944 -1.33508301 110.5189209 C-1.45204888 98.69002759 -1.45204888 98.69002759 2.8125 93.5625 C4.50969794 92.00607122 6.24080514 90.48599624 8 89 C9.87091502 86.960627 11.6176529 84.82483102 13.375 82.6875 C14.3080323 81.58806495 15.24163108 80.4891104 16.17578125 79.390625 C19.52871443 75.39909307 22.73114408 71.29415643 25.92944336 67.1784668 C29.76788985 62.25238006 33.75734807 57.47078777 37.80859375 52.71875 C40.10055013 49.97229635 40.10055013 49.97229635 42.16015625 46.65625 C43.07087891 45.34140625 43.07087891 45.34140625 44 44 C44.66 44 45.32 44 46 44 C46.25652344 43.43539062 46.51304687 42.87078125 46.77734375 42.2890625 C48.14057613 39.73681273 49.75445796 37.63222159 51.5625 35.375 C54.0196581 32.33933997 54.0196581 32.33933997 56 29 C37.52 29 19.04 29 0 29 C0 19.43 0 9.86 0 0 Z " fill="#3F57E3" transform="translate(198,444)"/>
<path d="M0 0 C6.6 0 13.2 0 20 0 C27.07126773 7.7013807 27.07126773 7.7013807 28.8203125 11.0390625 C30.58707705 14.27685391 32.51281502 17.26343262 34.6875 20.25 C35.22890625 21.02988281 35.7703125 21.80976563 36.328125 22.61328125 C40.13233813 28.04406214 44.06997297 33.38148379 48.00390625 38.71875 C52.88640716 45.36888823 57.41108795 52.11663193 62 59 C62.33 39.53 62.66 20.06 63 0 C69.27 0 75.54 0 82 0 C82 31.02 82 62.04 82 94 C64 94 64 94 59.3125 89.6875 C58.15065995 87.82645305 57.04659664 85.92821252 56 84 C54.82091361 82.14047168 53.63343472 80.28623752 52.4375 78.4375 C51.69306641 77.19806641 51.69306641 77.19806641 50.93359375 75.93359375 C49.28060464 73.42572543 47.55269936 71.11331557 45.6953125 68.7578125 C42.0510647 64.1269924 38.7242606 59.32601125 35.4375 54.4375 C31.90355771 49.19372216 28.33468972 44.01630659 24.47680664 39.00415039 C22.55902944 36.40156599 20.79326217 33.68989326 19 31 C18.67 51.79 18.34 72.58 18 94 C12.06 94 6.12 94 0 94 C0 62.98 0 31.96 0 0 Z " fill="#11192C" transform="translate(544,464)"/>
<path d="M0 0 C6.27 0 12.54 0 19 0 C19 12.54 19 25.08 19 38 C33.19 38 47.38 38 62 38 C62 25.46 62 12.92 62 0 C68.27 0 74.54 0 81 0 C81 31.02 81 62.04 81 94 C74.73 94 68.46 94 62 94 C62 80.8 62 67.6 62 54 C47.81 54 33.62 54 19 54 C19 67.53 19 81.06 19 95 C12.73 95 6.46 95 0 95 C0 63.65 0 32.3 0 0 Z " fill="#121B2D" transform="translate(746,464)"/>
<path d="M0 0 C21.45 0 42.9 0 65 0 C65 5.61 65 11.22 65 17 C49.49 17 33.98 17 18 17 C18 23.93 18 30.86 18 38 C32.85 38 47.7 38 63 38 C63 43.28 63 48.56 63 54 C48.15 54 33.3 54 18 54 C18 61.59 18 69.18 18 77 C33.51 77 49.02 77 65 77 C65 82.61 65 88.22 65 94 C43.55 94 22.1 94 0 94 C0 62.98 0 31.96 0 0 Z " fill="#10192C" transform="translate(466,464)"/>
<path d="M0 0 C22.77 0 45.54 0 69 0 C69 17.78724604 69 17.78724604 65.49682617 21.46728516 C65.00287354 21.91120605 64.5089209 22.35512695 64 22.8125 C62.97228396 23.87603807 61.94756586 24.94248084 60.92578125 26.01171875 C60.42127441 26.51751465 59.91676758 27.02331055 59.39697266 27.54443359 C57.43495419 29.58874573 55.81867372 31.81150524 54.1875 34.125 C53.55714844 35.00929688 52.92679687 35.89359375 52.27734375 36.8046875 C51.52582031 37.85914063 50.77429688 38.91359375 50 40 C42.76322505 49.99353026 35.4421013 59.89161327 27.64355469 69.45605469 C25.07198552 72.56029194 25.07198552 72.56029194 23 76 C38.18 76.33 53.36 76.66 69 77 C69 82.61 69 88.22 69 94 C45.57 94 22.14 94 -2 94 C-2 77 -2 77 1.25 72.3125 C1.85328125 71.79300781 2.4565625 71.27351562 3.078125 70.73828125 C5.59366037 68.46305109 7.14133276 65.83583421 9 63 C10.86716939 60.5638514 12.81002269 58.19086419 14.75 55.8125 C18.89766516 50.68006098 22.8807758 45.4819543 26.71484375 40.109375 C30.476512 34.99093409 34.41522996 30.00929431 38.34130859 25.01635742 C38.9286377 24.26717041 39.5159668 23.5179834 40.12109375 22.74609375 C40.6514624 22.07247803 41.18183105 21.3988623 41.72827148 20.70483398 C43.06430199 19.01833977 43.06430199 19.01833977 44 17 C29.48 17 14.96 17 0 17 C0 11.39 0 5.78 0 0 Z " fill="#101A2C" transform="translate(386,464)"/>
<path d="M0 0 C24.09 0 48.18 0 73 0 C73 5.61 73 11.22 73 17 C64.09 17 55.18 17 46 17 C46 42.41 46 67.82 46 94 C40.06 94 34.12 94 28 94 C28 68.59 28 43.18 28 17 C18.76 17 9.52 17 0 17 C0 11.39 0 5.78 0 0 Z " fill="#0F192B" transform="translate(666,464)"/>
<path d="M0 0 C6.27 0 12.54 0 19 0 C19 31.35 19 62.7 19 95 C12.73 95 6.46 95 0 95 C0 63.65 0 32.3 0 0 Z " fill="#151E2F" transform="translate(640,464)"/>
<path d="M0 0 C12.74307113 -0.02255841 25.48612908 -0.0409194 38.22921562 -0.05181217 C44.14581924 -0.05703915 50.06240853 -0.06413347 55.97900391 -0.07543945 C61.68480699 -0.08627487 67.39059627 -0.09227823 73.09640884 -0.09487724 C75.27738792 -0.09673031 77.45836622 -0.10034866 79.63933945 -0.10573006 C82.68519497 -0.11294914 85.73099282 -0.11399057 88.77685547 -0.11352539 C89.68603729 -0.11712067 90.59521912 -0.12071594 91.5319519 -0.12442017 C97.77189568 -0.11405216 97.77189568 -0.11405216 100 1 C100 8.26 100 15.52 100 23 C99.34 23 98.68 23 98 23 C98 23.66 98 24.32 98 25 C97.34 25 96.68 25 96 25 C95.79117188 25.67289062 95.58234375 26.34578125 95.3671875 27.0390625 C93.53009957 31.01767006 90.93044247 34.03400632 88.125 37.375 C86.95643153 38.78856694 85.78847852 40.20264285 84.62109375 41.6171875 C84.02409668 42.33745117 83.42709961 43.05771484 82.81201172 43.79980469 C79.89940873 47.3363687 77.04306591 50.91734243 74.1875 54.5 C73.66623535 55.15274902 73.1449707 55.80549805 72.60791016 56.47802734 C71.40465135 57.98485501 70.20222377 59.4923464 69 61 C68.34 60.67 67.68 60.34 67 60 C68.12451727 57.0280615 69.22293791 54.66559313 71 52 C71.99 52 72.98 52 74 52 C74.268125 51.4225 74.53625 50.845 74.8125 50.25 C76.02929189 47.94449957 77.30333879 45.97943808 79 44 C79.66 44 80.32 44 81 44 C81.33 42.02 81.66 40.04 82 38 C82.66 38 83.32 38 84 38 C84.20625 37.0925 84.4125 36.185 84.625 35.25 C86.34640746 31.18121872 88.29985069 30.29409257 92 28 C96.70346377 22.78805366 97.16139745 18.81845527 97.125 12 C97.12886719 11.27554687 97.13273437 10.55109375 97.13671875 9.8046875 C97.13081927 6.60717121 97.01805798 4.05417393 96 1 C87.41795719 1.10905494 78.83597604 1.22195005 70.25404358 1.33933926 C66.26622557 1.39377524 62.27840014 1.44703886 58.29052734 1.49731445 C39.84135426 1.73079577 21.4328081 2.12119224 3 3 C2.67 11.25 2.34 19.5 2 28 C5.94710937 27.97679687 9.89421875 27.95359375 13.9609375 27.9296875 C17.77017902 27.91410445 21.57941703 27.90195203 25.38867188 27.89013672 C28.04265931 27.88005911 30.6966356 27.86639687 33.35058594 27.84912109 C37.15823107 27.82495008 40.96572984 27.81353465 44.7734375 27.8046875 C46.56254044 27.78920364 46.56254044 27.78920364 48.38778687 27.77340698 C49.48877716 27.77325592 50.58976746 27.77310486 51.72412109 27.77294922 C53.1830629 27.76628738 53.1830629 27.76628738 54.67147827 27.75949097 C57 28 57 28 59 30 C58.8125 32.0625 58.8125 32.0625 58 34 C57.01 34.33 56.02 34.66 55 35 C54.67 35.99 54.34 36.98 54 38 C53.67 38.99 53.34 39.98 53 41 C52.01 41.33 51.02 41.66 50 42 C49.566875 43.11375 49.566875 43.11375 49.125 44.25 C47.73051656 47.6587373 45.61627399 49.45080995 43 52 C42.22227595 54.33317216 41.57584432 56.61435923 41 59 C40.67 58.34 40.34 57.68 40 57 C39.34 57 38.68 57 38 57 C38 59.64 38 62.28 38 65 C37.01 65 36.02 65 35 65 C35 64.34 35 63.68 35 63 C34.34 63 33.68 63 33 63 C32.690625 63.61875 32.38125 64.2375 32.0625 64.875 C31.375 66.25 30.6875 67.625 30 69 C29.01 69 28.02 69 27 69 C26.67 70.98 26.34 72.96 26 75 C24.33333333 75 22.66666667 75 21 75 C20.67 75.99 20.34 76.98 20 78 C19.34 77.67 18.68 77.34 18 77 C18.79921875 76.01902344 19.5984375 75.03804687 20.421875 74.02734375 C26.21701599 66.90866504 32.00113345 59.78112282 37.75 52.625 C38.26272461 51.98941162 38.77544922 51.35382324 39.30371094 50.69897461 C41.89762112 47.51285946 41.89762112 47.51285946 44 44 C44.66 44 45.32 44 46 44 C46.25652344 43.43539062 46.51304687 42.87078125 46.77734375 42.2890625 C48.14057613 39.73681273 49.75445796 37.63222159 51.5625 35.375 C54.0196581 32.33933997 54.0196581 32.33933997 56 29 C37.52 29 19.04 29 0 29 C0 19.43 0 9.86 0 0 Z " fill="#5567CA" transform="translate(198,444)"/>
<path d="M0 0 C9.24 0 18.48 0 28 0 C29.125 13.25 29.125 13.25 28 20 C19.09 20 10.18 20 1 20 C0.67 19.01 0.34 18.02 0 17 C-0.66 16.67 -1.32 16.34 -2 16 C-1.67 15.21625 -1.34 14.4325 -1 13.625 C0.443215 9.02007934 0.443215 9.02007934 0 0 Z " fill="#9198A3" transform="translate(954,949)"/>
<path d="M0 0 C6.0546875 -0.1953125 6.0546875 -0.1953125 8 0 C8.66 0.66 9.32 1.32 10 2 C12.17537684 2.28042984 12.17537684 2.28042984 14.5625 2.1875 C15.36816406 2.18105469 16.17382812 2.17460938 17.00390625 2.16796875 C18.99879885 2.21630912 18.99879885 2.21630912 20 1 C22.67058851 0.85884839 25.32432238 0.95752893 28 1 C28.495 2.98 28.495 2.98 29 5 C26.03 4.67 23.06 4.34 20 4 C19.957279 5.66611905 19.95936168 7.33382885 20 9 C21.09631369 10.32131818 21.09631369 10.32131818 23.8125 10.125 C26.42835942 10.02241728 28.5193362 9.76328117 31 9 C31 6.36 31 3.72 31 1 C31.66 1 32.32 1 33 1 C33 4.96 33 8.92 33 13 C32.34 13 31.68 13 31 13 C31 12.34 31 11.68 31 11 C30.319375 11.495 29.63875 11.99 28.9375 12.5 C25.40406757 14.30430592 22.91482882 14.15057034 19 14 C18.67 14.33 18.34 14.66 18 15 C15.66702567 15.04092937 13.33294775 15.04241723 11 15 C11 14.34 11 13.68 11 13 C11.66 13 12.32 13 13 13 C12.67 12.34 12.34 11.68 12 11 C11.46890625 11.49113281 10.9378125 11.98226562 10.390625 12.48828125 C7.31984538 14.43009777 5.35078604 14.30491694 1.75 14.1875 C0.13351563 14.14689453 0.13351563 14.14689453 -1.515625 14.10546875 C-2.33546875 14.07066406 -3.1553125 14.03585938 -4 14 C-4 13.34 -4 12.68 -4 12 C-5.65 11.67 -7.3 11.34 -9 11 C-9 11.99 -9 12.98 -9 14 C-9.66 14 -10.32 14 -11 14 C-11 9.71 -11 5.42 -11 1 C-8.69 1 -6.38 1 -4 1 C-3.01 3.31 -2.02 5.62 -1 8 C-0.67 5.36 -0.34 2.72 0 0 Z " fill="#969AA3" transform="translate(84,53)"/>
<path d="M0 0 C1.90875916 0.02545395 1.90875916 0.02545395 3.8560791 0.05142212 C4.90796921 0.063424 4.90796921 0.063424 5.98110962 0.07566833 C8.32298971 0.10374793 10.66469478 0.13922479 13.00646973 0.17495728 C14.64908399 0.19675715 16.29170295 0.21820532 17.93432617 0.23931885 C21.40146043 0.28498933 24.86852227 0.3341637 28.33557129 0.38589478 C32.702381 0.45089668 37.06924621 0.50869694 41.43618774 0.56403732 C60.35895196 0.80621432 79.25868475 1.16111041 98.16271973 2.08901978 C98.65771973 3.07901978 98.65771973 3.07901978 99.16271973 4.08901978 C66.16271973 3.75901978 33.16271973 3.42901978 -0.83728027 3.08901978 C-0.83728027 12.65901978 -0.83728027 22.22901978 -0.83728027 32.08901978 C17.64271973 32.08901978 36.12271973 32.08901978 55.16271973 32.08901978 C52.91271973 37.71401978 52.91271973 37.71401978 49.16271973 40.08901978 C49.49271973 38.43901978 49.82271973 36.78901978 50.16271973 35.08901978 C49.54519836 35.09790222 48.927677 35.10678467 48.29144287 35.11593628 C41.86776988 35.20438896 35.44426971 35.26474546 29.0201416 35.30874634 C26.62228367 35.32886913 24.22447485 35.35617037 21.82678223 35.39077759 C18.3813465 35.43926468 14.93655921 35.46198218 11.49084473 35.47964478 C9.88127899 35.51061249 9.88127899 35.51061249 8.23919678 35.54220581 C6.73809357 35.542659 6.73809357 35.542659 5.20666504 35.54312134 C4.32730286 35.55200378 3.44794067 35.56088623 2.54193115 35.57003784 C-0.6515976 34.92438483 -1.84348333 33.61437995 -3.83728027 31.08901978 C-4.30725098 27.8968811 -4.30725098 27.8968811 -4.26306152 24.17105103 C-4.25977341 23.51320114 -4.25648529 22.85535126 -4.25309753 22.17756653 C-4.2427071 20.7932133 -4.22280833 19.4089026 -4.19396973 18.02481079 C-4.14971089 15.89818596 -4.13250606 13.77268976 -4.1204834 11.6456604 C-4.00562702 0.1256767 -4.00562702 0.1256767 0 0 Z " fill="#C0CFF0" transform="translate(198.8372802734375,440.9109802246094)"/>
<path d="M0 0 C5.61 0 11.22 0 17 0 C17 1.65 17 3.3 17 5 C16.34 5 15.68 5 15 5 C14.79375 5.66 14.5875 6.32 14.375 7 C12.48847129 11.11606263 9.79432021 14.4587703 7 18 C8.98 18 10.96 18 13 18 C13.66 16.68 14.32 15.36 15 14 C15.99 14.33 16.98 14.66 18 15 C17.67 16.32 17.34 17.64 17 19 C17.66 19 18.32 19 19 19 C19.33 16.03 19.66 13.06 20 10 C21.65 9.67 23.3 9.34 25 9 C25.33 12.3 25.66 15.6 26 19 C24.2984375 19.4640625 24.2984375 19.4640625 22.5625 19.9375 C19.21224901 20.62924531 19.21224901 20.62924531 18 22 C16.65732587 22.08631874 15.31025678 22.10706473 13.96484375 22.09765625 C12.87224243 22.09390991 12.87224243 22.09390991 11.75756836 22.09008789 C10.8269458 22.08098389 9.89632324 22.07187988 8.9375 22.0625 C4.5134375 22.0315625 4.5134375 22.0315625 0 22 C0 14.74 0 7.48 0 0 Z " fill="#7D8189" transform="translate(43,45)"/>
<path d="M0 0 C1.04449911 3.13349732 0.93423645 3.98968256 0 7 C-0.66 7 -1.32 7 -2 7 C-2.1546875 8.1446875 -2.1546875 8.1446875 -2.3125 9.3125 C-3.05067115 12.19807812 -3.62140803 13.26179817 -6 15 C-6.99 15 -7.98 15 -9 15 C-10.03013277 16.64821244 -11.03114628 18.31503702 -12 20 C-12.66 20 -13.32 20 -14 20 C-14 20.99 -14 21.98 -14 23 C-14.66 23 -15.32 23 -16 23 C-16 31.25 -16 39.5 -16 48 C15.35 48 46.7 48 79 48 C79.33 46.35 79.66 44.7 80 43 C81.19140625 40.54296875 81.19140625 40.54296875 82.5625 38.1875 C83.01753906 37.39730469 83.47257812 36.60710938 83.94140625 35.79296875 C84.29074219 35.20128906 84.64007813 34.60960937 85 34 C85.66 34.33 86.32 34.66 87 35 C86.1533679 37.32673716 85.2757692 39.63179972 84.375 41.9375 C84.13910156 42.59685547 83.90320313 43.25621094 83.66015625 43.93554688 C82.8984375 45.83984375 82.8984375 45.83984375 81 49 C76.03219339 50.34899923 70.89413757 50.13519929 65.78173828 50.11352539 C64.87378006 50.11367142 63.96582184 50.11381744 63.03034973 50.1139679 C60.04364594 50.11327391 57.05700533 50.10550563 54.0703125 50.09765625 C51.99380528 50.09579024 49.91729761 50.0943672 47.84078979 50.09336853 C42.38609595 50.08955774 36.9314289 50.07973975 31.47674561 50.06866455 C25.90637576 50.05841949 20.33600156 50.05386428 14.765625 50.04882812 C3.84373825 50.03811617 -7.07812864 50.02105704 -18 50 C-18.11476876 45.47026328 -18.18445759 40.94090295 -18.24609375 36.41015625 C-18.27908569 35.12967407 -18.31207764 33.84919189 -18.34606934 32.52990723 C-18.46685539 20.70629497 -18.46685539 20.70629497 -14.0625 15.4375 C-12.40373448 13.9261803 -10.71500001 12.4471922 -9 11 C-7.22543807 8.99782834 -5.5972258 6.91481935 -3.9375 4.8125 C-2.625 3.20833333 -1.3125 1.60416667 0 0 Z " fill="#495DCA" transform="translate(215,522)"/>
<path d="M0 0 C0.33 0.99 0.66 1.98 1 3 C0.54625 3.391875 0.0925 3.78375 -0.375 4.1875 C-2.16418199 5.95758994 -2.16418199 5.95758994 -2.9375 8.5625 C-4.22527876 11.51681597 -5.20844578 11.64924796 -8 13 C-8.35412344 14.32796291 -8.68521554 15.66216607 -9 17 C-10.97128307 19.17520891 -13.00194669 21.00152578 -15.3125 22.8125 C-15.869375 23.534375 -16.42625 24.25625 -17 25 C-16.67 27.31 -16.34 29.62 -16 32 C-7.75 32 0.5 32 9 32 C9.33 32.66 9.66 33.32 10 34 C11.65 33.34 13.3 32.68 15 32 C14.67 33.65 14.34 35.3 14 37 C-0.19 37 -14.38 37 -29 37 C-26.9907484 32.98149679 -24.55087287 29.96665481 -21.625 26.625 C-18.79551278 23.38697719 -16.07867631 20.22432647 -13.7734375 16.5859375 C-13.18820313 15.73257813 -12.60296875 14.87921875 -12 14 C-11.34 14 -10.68 14 -10 14 C-9.63261719 13.17242188 -9.63261719 13.17242188 -9.2578125 12.328125 C-7.74261886 9.52360509 -5.88915874 7.21896877 -3.875 4.75 C-3.15054687 3.85796875 -2.42609375 2.9659375 -1.6796875 2.046875 C-1.12539063 1.37140625 -0.57109375 0.6959375 0 0 Z " fill="#CED7DA" transform="translate(265,506)"/>
<path d="M0 0 C7.26692328 -0.0462955 14.53381488 -0.08185493 21.80085564 -0.10362434 C25.17506994 -0.11407142 28.54918352 -0.12824725 31.92333984 -0.15087891 C35.80048318 -0.17504885 39.67748277 -0.18646511 43.5546875 -0.1953125 C44.76929657 -0.20563507 45.98390564 -0.21595764 47.23532104 -0.22659302 C48.35633209 -0.22674408 49.47734314 -0.22689514 50.63232422 -0.22705078 C51.62271698 -0.231492 52.61310974 -0.23593323 53.6335144 -0.24050903 C56 0 56 0 58 2 C57.8125 4.0625 57.8125 4.0625 57 6 C56.01 6.33 55.02 6.66 54 7 C53.67 7.99 53.34 8.98 53 10 C52.67 10.99 52.34 11.98 52 13 C51.01 13.33 50.02 13.66 49 14 C48.566875 15.11375 48.566875 15.11375 48.125 16.25 C46.73051656 19.6587373 44.61627399 21.45080995 42 24 C41.22227595 26.33317216 40.57584432 28.61435923 40 31 C39.505 30.01 39.505 30.01 39 29 C38.34 29 37.68 29 37 29 C37 31.64 37 34.28 37 37 C36.01 37 35.02 37 34 37 C34 36.34 34 35.68 34 35 C33.34 35 32.68 35 32 35 C31.690625 35.61875 31.38125 36.2375 31.0625 36.875 C30.375 38.25 29.6875 39.625 29 41 C28.01 41 27.02 41 26 41 C25.67 42.98 25.34 44.96 25 47 C23.33333333 47 21.66666667 47 20 47 C19.67 47.99 19.34 48.98 19 50 C18.34 49.67 17.68 49.34 17 49 C17.79921875 48.01902344 18.5984375 47.03804687 19.421875 46.02734375 C25.21701599 38.90866504 31.00113345 31.78112282 36.75 24.625 C37.51908691 23.67161743 37.51908691 23.67161743 38.30371094 22.69897461 C40.89762112 19.51285946 40.89762112 19.51285946 43 16 C43.66 16 44.32 16 45 16 C45.25652344 15.43539063 45.51304687 14.87078125 45.77734375 14.2890625 C47.14057613 11.73681273 48.75445796 9.63222159 50.5625 7.375 C53.0196581 4.33933997 53.0196581 4.33933997 55 1 C36.85 1 18.7 1 0 1 C0 0.67 0 0.34 0 0 Z " fill="#4557C4" transform="translate(199,472)"/>
<path d="M0 0 C0.66 0.33 1.32 0.66 2 1 C1.67 10.9 1.34 20.8 1 31 C33.34 30.67 65.68 30.34 99 30 C99 30.66 99 31.32 99 32 C94.69724715 33.20844222 90.49481892 33.1476286 86.05639648 33.14526367 C85.15354919 33.14862228 84.2507019 33.1519809 83.32049561 33.15544128 C80.33734765 33.16493747 77.35425587 33.16689349 74.37109375 33.16796875 C72.29891435 33.17118139 70.22673519 33.17454547 68.15455627 33.17805481 C63.81274896 33.18404212 59.47096154 33.18589503 55.12915039 33.18530273 C49.558124 33.18520094 43.98722455 33.1988732 38.41622829 33.21607494 C34.13808095 33.22717513 29.85996455 33.22922258 25.58180428 33.22869301 C23.52724837 33.22987535 21.47269172 33.23431127 19.41814995 33.24202538 C16.55007806 33.2517887 13.68228507 33.24896213 10.81420898 33.24291992 C9.96166031 33.24853943 9.10911163 33.25415894 8.23072815 33.25994873 C4.30562742 33.23886455 2.34033997 33.22689331 -1 31 C-1.35644531 28.14257812 -1.35644531 28.14257812 -1.328125 24.53125 C-1.32296875 23.23832031 -1.3178125 21.94539062 -1.3125 20.61328125 C-1.3021875 19.93861816 -1.291875 19.26395508 -1.28125 18.56884766 C-1.25012014 16.50795359 -1.24028216 14.44782452 -1.234375 12.38671875 C-1.1539862 2.30797239 -1.1539862 2.30797239 0 0 Z " fill="#B7C5F5" transform="translate(196,541)"/>
<path d="M0 0 C8.58 0 17.16 0 26 0 C26 2.97 26 5.94 26 9 C17.42 9 8.84 9 0 9 C0 6.03 0 3.06 0 0 Z " fill="#0F1828" transform="translate(955,949)"/>
<path d="M0 0 C0.82290527 0.00202423 1.64581055 0.00404846 2.49365234 0.00613403 C3.33331543 0.00517731 4.17297852 0.00422058 5.03808594 0.00323486 C6.81689529 0.00255306 8.59570712 0.00440737 10.37451172 0.00857544 C13.10699011 0.01392371 15.83930411 0.00863048 18.57177734 0.00222778 C20.29573604 0.00288856 22.01969464 0.00416973 23.74365234 0.00613403 C24.56655762 0.0041098 25.38946289 0.00208557 26.23730469 0 C32.0037018 0.02399599 32.0037018 0.02399599 33.11865234 1.13894653 C33.20623237 3.13859635 33.22561811 5.14130763 33.21630859 7.14285278 C33.21308594 8.35779419 33.20986328 9.5727356 33.20654297 10.82449341 C33.19397461 12.74358521 33.19397461 12.74358521 33.18115234 14.70144653 C33.17664063 15.98470825 33.17212891 17.26796997 33.16748047 18.59011841 C33.1556478 21.77310676 33.13916303 24.95600416 33.11865234 28.13894653 C32.78865234 28.13894653 32.45865234 28.13894653 32.11865234 28.13894653 C31.62365234 15.26894653 31.62365234 15.26894653 31.11865234 2.13894653 C19.23865234 2.13894653 7.35865234 2.13894653 -4.88134766 2.13894653 C-5.54134766 4.11894653 -6.20134766 6.09894653 -6.88134766 8.13894653 C-7.54134766 8.79894653 -8.20134766 9.45894653 -8.88134766 10.13894653 C-9.4844638 11.82656511 -10.01985002 13.53909129 -10.50634766 15.26394653 C-10.89693359 16.62906372 -10.89693359 16.62906372 -11.29541016 18.02175903 C-11.48876953 18.72043091 -11.68212891 19.41910278 -11.88134766 20.13894653 C-12.54134766 20.13894653 -13.20134766 20.13894653 -13.88134766 20.13894653 C-14.03603516 21.15988403 -14.03603516 21.15988403 -14.19384766 22.20144653 C-15.02859784 25.76810642 -16.3760752 28.80116847 -17.88134766 32.13894653 C-18.54134766 32.13894653 -19.20134766 32.13894653 -19.88134766 32.13894653 C-20.06310547 32.73062622 -20.24486328 33.32230591 -20.43212891 33.93191528 C-23.13985275 42.44388818 -23.13985275 42.44388818 -25.88134766 46.13894653 C-26.54134766 46.13894653 -27.20134766 46.13894653 -27.88134766 46.13894653 C-26.37284364 40.98083604 -24.07946013 36.56757033 -21.50634766 31.88894653 C-18.61395069 26.53792641 -15.97593088 21.26907741 -13.85009766 15.56082153 C-7.6384836 0.03178639 -7.6384836 0.03178639 0 0 Z " fill="#6273CD" transform="translate(314.88134765625,479.8610534667969)"/>
<path d="M0 0 C1.2065625 0.0309375 1.2065625 0.0309375 2.4375 0.0625 C1.0625 2.5625 1.0625 2.5625 -0.5625 5.0625 C-1.2225 5.0625 -1.8825 5.0625 -2.5625 5.0625 C-2.80484375 5.61421875 -3.0471875 6.1659375 -3.296875 6.734375 C-4.83861171 9.57040919 -6.73637281 11.84092001 -8.8125 14.3125 C-12.57623723 18.80302787 -16.03018322 23.3527443 -19.5625 28.0625 C-5.3725 28.0625 8.8175 28.0625 23.4375 28.0625 C24.4275 25.0925 25.4175 22.1225 26.4375 19.0625 C27.65871073 16.31375478 29.03292017 13.7263583 30.4375 11.0625 C31.53648702 14.35946105 31.30874444 15.46744903 30.5 18.75 C30.30535156 19.55824219 30.11070312 20.36648438 29.91015625 21.19921875 C29.67619141 22.12154297 29.67619141 22.12154297 29.4375 23.0625 C28.4475 23.0625 27.4575 23.0625 26.4375 23.0625 C26.293125 23.68125 26.14875 24.3 26 24.9375 C25.4375 27.0625 25.4375 27.0625 24.4375 29.0625 C9.2575 29.0625 -5.9225 29.0625 -21.5625 29.0625 C-19.72916667 19.89583333 -19.72916667 19.89583333 -15.5 16.875 C-14.0459375 15.9778125 -14.0459375 15.9778125 -12.5625 15.0625 C-12.2325 14.4025 -11.9025 13.7425 -11.5625 13.0625 C-10.9025 13.0625 -10.2425 13.0625 -9.5625 13.0625 C-9.5625 12.0725 -9.5625 11.0825 -9.5625 10.0625 C-7.6875 7.875 -7.6875 7.875 -5.5625 6.0625 C-4.9025 6.0625 -4.2425 6.0625 -3.5625 6.0625 C-3.583125 5.258125 -3.60375 4.45375 -3.625 3.625 C-3.54067676 0.16774696 -3.45725304 0.08432324 0 0 Z " fill="#4C60C5" transform="translate(255.5625,514.9375)"/>
<path d="M0 0 C4.31248609 -0.02886537 8.62494762 -0.04675255 12.9375 -0.0625 C14.16919922 -0.07087891 15.40089844 -0.07925781 16.66992188 -0.08789062 C17.83974609 -0.09111328 19.00957031 -0.09433594 20.21484375 -0.09765625 C21.84087524 -0.10551147 21.84087524 -0.10551147 23.49975586 -0.11352539 C26 0 26 0 27 1 C27.08758003 2.99964982 27.10696576 5.0023611 27.09765625 7.00390625 C27.09443359 8.21884766 27.09121094 9.43378906 27.08789062 10.68554688 C27.07951172 11.96494141 27.07113281 13.24433594 27.0625 14.5625 C27.05798828 15.84576172 27.05347656 17.12902344 27.04882812 18.45117188 C27.03699555 21.6341342 27.01905944 24.81707274 27 28 C19.74 28 12.48 28 5 28 C5 27.67 5 27.34 5 27 C11.27 26.34 17.54 25.68 24 25 C24.33 18.07 24.66 11.14 25 4 C23.68 3.67 22.36 3.34 21 3 C20.67 3.33 20.34 3.66 20 4 C13.01344275 4.48067514 6.68561888 4.0571135 0 2 C0 1.34 0 0.68 0 0 Z " fill="#475ACD" transform="translate(320,481)"/>
<path d="M0 0 C0.33 0 0.66 0 1 0 C1 9.57 1 19.14 1 29 C19.48 29 37.96 29 57 29 C54.75 34.625 54.75 34.625 51 37 C51.33 35.35 51.66 33.7 52 32 C51.06705612 32.00666183 51.06705612 32.00666183 50.11526489 32.01345825 C43.65938609 32.0576024 37.20354995 32.08782918 30.74755859 32.10986328 C28.33608256 32.11993954 25.92461878 32.13360081 23.51318359 32.15087891 C20.05302915 32.1750559 16.5930358 32.18646669 13.1328125 32.1953125 C12.04944611 32.20563507 10.96607971 32.21595764 9.84988403 32.22659302 C8.8489975 32.22674408 7.84811096 32.22689514 6.81689453 32.22705078 C5.49118942 32.23371262 5.49118942 32.23371262 4.13870239 32.24050903 C2 32 2 32 0 30 C-0.22705078 27.01904297 -0.22705078 27.01904297 -0.1953125 23.2421875 C-0.1924826 22.57913605 -0.18965271 21.91608459 -0.18673706 21.23294067 C-0.17553435 19.11344417 -0.15043051 16.99436896 -0.125 14.875 C-0.11497028 13.43880818 -0.10584441 12.00260975 -0.09765625 10.56640625 C-0.075595 7.04413372 -0.04106494 3.52210797 0 0 Z " fill="#AFBEF2" transform="translate(197,444)"/>
<path d="M0 0 C13.2 0 26.4 0 40 0 C40 0.33 40 0.66 40 1 C27.46 1.33 14.92 1.66 2 2 C-3.73605894 13.32337798 -3.73605894 13.32337798 -8.9921875 24.76171875 C-11.16410795 29.58540254 -13.60592942 34.28368095 -16 39 C-16.66 37.68 -17.32 36.36 -18 35 C-17.505 34.505 -17.505 34.505 -17 34 C-16.979375 33.030625 -16.95875 32.06125 -16.9375 31.0625 C-16.3367387 26.15628272 -13.09916341 23.25679505 -9.99609375 19.6171875 C-7.55893297 16.42169294 -6.24914371 13.30738448 -4.984375 9.51953125 C-3.68091439 6.18329279 -1.77708467 3.10989818 0 0 Z " fill="#BDC8F0" transform="translate(307,479)"/>
<path d="M0 0 C0.66 0 1.32 0 2 0 C2.96232804 3.23722566 3.12887438 6.16440617 3.1328125 9.53515625 C3.13474609 11.11973633 3.13474609 11.11973633 3.13671875 12.73632812 C3.13285156 13.83396484 3.12898438 14.93160156 3.125 16.0625 C3.13080078 17.71475586 3.13080078 17.71475586 3.13671875 19.40039062 C3.13542969 20.45548828 3.13414062 21.51058594 3.1328125 22.59765625 C3.13168457 23.56195557 3.13055664 24.52625488 3.12939453 25.51977539 C3 28 3 28 2 31 C-5.59 31.33 -13.18 31.66 -21 32 C-21.66 34.31 -22.32 36.62 -23 39 C-23.99 39 -24.98 39 -26 39 C-26.33 40.32 -26.66 41.64 -27 43 C-28 40 -28 40 -27.0390625 37.5546875 C-26.57242187 36.67039062 -26.10578125 35.78609375 -25.625 34.875 C-25.16351563 33.98554687 -24.70203125 33.09609375 -24.2265625 32.1796875 C-23 30 -23 30 -22 29 C-20.36743242 28.84285346 -18.72864662 28.74914586 -17.08984375 28.68359375 C-15.75360962 28.62643188 -15.75360962 28.62643188 -14.39038086 28.56811523 C-13.25093018 28.52501221 -12.11147949 28.48190918 -10.9375 28.4375 C-7.328125 28.293125 -3.71875 28.14875 0 28 C0 18.76 0 9.52 0 0 Z " fill="#C8D4F6" transform="translate(347,480)"/>
<path d="M0 0 C2.64 0 5.28 0 8 0 C8 0.33 8 0.66 8 1 C5.69 1 3.38 1 1 1 C1 4.96 1 8.92 1 13 C1.66 13.33 2.32 13.66 3 14 C0.69 14 -1.62 14 -4 14 C-4 13.34 -4 12.68 -4 12 C-5.65 11.67 -7.3 11.34 -9 11 C-9 11.99 -9 12.98 -9 14 C-9.66 14 -10.32 14 -11 14 C-11 9.71 -11 5.42 -11 1 C-8.69 1 -6.38 1 -4 1 C-3.01 3.31 -2.02 5.62 -1 8 C-0.67 5.36 -0.34 2.72 0 0 Z " fill="#9397A0" transform="translate(84,53)"/>
<path d="M0 0 C0.66 0.33 1.32 0.66 2 1 C1.67 1.99 1.34 2.98 1 4 C0.77674186 6.05893621 0.59294241 8.12233653 0.4375 10.1875 C0.35371094 11.27417969 0.26992187 12.36085938 0.18359375 13.48046875 C0.12300781 14.31191406 0.06242187 15.14335938 0 16 C-0.33 16 -0.66 16 -1 16 C-1 12.04 -1 8.08 -1 4 C-1.66 4 -2.32 4 -3 4 C-3 6.64 -3 9.28 -3 12 C-6.39464446 14.08901197 -9.04841529 14.34361606 -13 14 C-13.66 13.34 -14.32 12.68 -15 12 C-14.625 9.375 -14.625 9.375 -14 7 C-11.1875 6.375 -11.1875 6.375 -8 6 C-7.01 6.66 -6.02 7.32 -5 8 C-5.33 7.01 -5.66 6.02 -6 5 C-8.31 4.67 -10.62 4.34 -13 4 C-11.68 3.67 -10.36 3.34 -9 3 C-9 2.34 -9 1.68 -9 1 C-6.66705225 0.95758277 -4.33297433 0.95907063 -2 1 C-1.67 1.33 -1.34 1.66 -1 2 C-0.67 1.34 -0.34 0.68 0 0 Z " fill="#CBCFD9" transform="translate(118,50)"/>
<path d="M0 0 C0.66 0.33 1.32 0.66 2 1 C2.33333333 2.33333333 2.66666667 3.66666667 3 5 C3.66 5.33 4.32 5.66 5 6 C4.67 6.66 4.34 7.32 4 8 C5.32 8.33 6.64 8.66 8 9 C6.68 9.33 5.36 9.66 4 10 C3.34 12.97 2.68 15.94 2 19 C1.34 19 0.68 19 0 19 C0 17.68 0 16.36 0 15 C-3.11785113 15.64644661 -3.11785113 15.64644661 -4 18 C-5.98 18 -7.96 18 -10 18 C-8.5360077 14.93124691 -6.85990364 12.09565257 -5 9.25 C-4.484375 8.45078125 -3.96875 7.6515625 -3.4375 6.828125 C-2.963125 6.22484375 -2.48875 5.6215625 -2 5 C-1.34 5 -0.68 5 0 5 C0 3.35 0 1.7 0 0 Z " fill="#CACFD7" transform="translate(60,45)"/>
<path d="M0 0 C0.33 0 0.66 0 1 0 C1.02505615 1.12792969 1.0501123 2.25585938 1.07592773 3.41796875 C1.17151445 7.68236888 1.27133821 11.94666188 1.37231445 16.2109375 C1.41510137 18.04164083 1.45680371 19.87236989 1.49731445 21.703125 C1.69710756 30.70121453 1.92716783 39.67710464 2.5625 48.65625 C2.97007299 54.66595376 2.99849351 60.49631922 2.5625 66.5 C2.51029297 67.33402344 2.45808594 68.16804687 2.40429688 69.02734375 C2.27839961 71.01880964 2.14063171 73.00952035 2 75 C1.34 75 0.68 75 0 75 C0 50.25 0 25.5 0 0 Z " fill="#C8CED9" transform="translate(626,480)"/>
<path d="M0 0 C-0.33 0.99 -0.66 1.98 -1 3 C-1 2.34 -1 1.68 -1 1 C-1.66 1 -2.32 1 -3 1 C-3 3.64 -3 6.28 -3 9 C-3.99 9 -4.98 9 -6 9 C-6 8.34 -6 7.68 -6 7 C-6.66 7 -7.32 7 -8 7 C-8.309375 7.61875 -8.61875 8.2375 -8.9375 8.875 C-9.625 10.25 -10.3125 11.625 -11 13 C-11.99 13 -12.98 13 -14 13 C-14.33 14.98 -14.66 16.96 -15 19 C-16.66666667 19 -18.33333333 19 -20 19 C-20.33 19.99 -20.66 20.98 -21 22 C-21.66 21.67 -22.32 21.34 -23 21 C-22.62713867 20.54149658 -22.25427734 20.08299316 -21.87011719 19.6105957 C-20.16320885 17.51139512 -18.45660214 15.41194952 -16.75 13.3125 C-16.16347656 12.59126953 -15.57695312 11.87003906 -14.97265625 11.12695312 C-14.39902344 10.42119141 -13.82539063 9.71542969 -13.234375 8.98828125 C-12.39592041 7.95912598 -12.39592041 7.95912598 -11.54052734 6.90917969 C-10.24303632 5.30119557 -8.97362283 3.67061387 -7.7109375 2.03515625 C-6 0 -6 0 -3.875 -0.875 C-2 -1 -2 -1 0 0 Z " fill="#485BD4" transform="translate(239,500)"/>
<path d="M0 0 C5.61 0 11.22 0 17 0 C17 0.33 17 0.66 17 1 C12.71 1 8.42 1 4 1 C3.67 2.32 3.34 3.64 3 5 C5.64 5 8.28 5 11 5 C9 8 7 11 5 14 C3.35 14.33 1.7 14.66 0 15 C0 10.05 0 5.1 0 0 Z " fill="#7B7F87" transform="translate(43,45)"/>
<path d="M0 0 C0.33 0.99 0.66 1.98 1 3 C6.21475559 2.90647883 11.42904614 2.80038822 16.64331055 2.68261719 C18.41732771 2.64432321 20.19142264 2.60947105 21.96557617 2.578125 C24.51509399 2.53248328 27.0640763 2.47448815 29.61328125 2.4140625 C30.40712723 2.40251129 31.20097321 2.39096008 32.01887512 2.37905884 C35.84323908 2.27644615 37.74596099 2.16935934 41 0 C40.67 1.65 40.34 3.3 40 5 C25.81 5 11.62 5 -3 5 C-1 1 -1 1 0 0 Z " fill="#AFC0F5" transform="translate(239,538)"/>
<path d="M0 0 C2.01822917 0.06510417 4.03645833 0.13020833 6.0546875 0.1953125 C6.3846875 1.5153125 6.7146875 2.8353125 7.0546875 4.1953125 C4.0846875 3.8653125 1.1146875 3.5353125 -1.9453125 3.1953125 C-1.9880335 4.86143155 -1.98595082 6.52914135 -1.9453125 8.1953125 C-0.84899881 9.51663068 -0.84899881 9.51663068 1.8671875 9.3203125 C4.48304692 9.21772978 6.5740237 8.95859367 9.0546875 8.1953125 C9.0546875 5.5553125 9.0546875 2.9153125 9.0546875 0.1953125 C9.7146875 0.1953125 10.3746875 0.1953125 11.0546875 0.1953125 C11.0546875 4.1553125 11.0546875 8.1153125 11.0546875 12.1953125 C10.3946875 12.1953125 9.7346875 12.1953125 9.0546875 12.1953125 C9.0546875 11.5353125 9.0546875 10.8753125 9.0546875 10.1953125 C8.3328125 10.6903125 7.6109375 11.1853125 6.8671875 11.6953125 C3.81610167 13.32255828 2.43391161 13.88848668 -0.9453125 13.1953125 C-3.3203125 11.0703125 -3.3203125 11.0703125 -4.9453125 8.1953125 C-4.79347593 4.32348005 -4.57558023 0.45939561 0 0 Z " fill="#81868D" transform="translate(105.9453125,53.8046875)"/>
<path d="M0 0 C0.99 0 1.98 0 3 0 C3 1.32 3 2.64 3 4 C4.65 4 6.3 4 8 4 C8 2.68 8 1.36 8 0 C8.99 0.33 9.98 0.66 11 1 C11 4.96 11 8.92 11 13 C10.01 13 9.02 13 8 13 C8 11.68 8 10.36 8 9 C7.01 9 6.02 9 5 9 C5 8.01 5 7.02 5 6 C4.34 6 3.68 6 3 6 C3 8.31 3 10.62 3 13 C2.01 13 1.02 13 0 13 C0 8.71 0 4.42 0 0 Z " fill="#848890" transform="translate(134,54)"/>
<path d="M0 0 C13.365 0.495 13.365 0.495 27 1 C27 1.33 27 1.66 27 2 C19.08 2.33 11.16 2.66 3 3 C2.67 11.25 2.34 19.5 2 28 C1.34 28.33 0.68 28.66 0 29 C0 19.43 0 9.86 0 0 Z " fill="#5062CA" transform="translate(198,444)"/>
<path d="M0 0 C0.66 0.33 1.32 0.66 2 1 C1.1533679 3.32673716 0.2757692 5.63179972 -0.625 7.9375 C-0.86089844 8.59685547 -1.09679687 9.25621094 -1.33984375 9.93554688 C-2.1015625 11.83984375 -2.1015625 11.83984375 -4 15 C-9.12675779 16.41345191 -14.49309425 16.12835627 -19.7734375 16.09765625 C-20.6971817 16.0962413 -21.6209259 16.09482635 -22.57266235 16.09336853 C-25.50680862 16.08779609 -28.44087701 16.07524869 -31.375 16.0625 C-33.37109264 16.05748144 -35.36718649 16.05291915 -37.36328125 16.04882812 C-42.24221725 16.03783569 -47.12109545 16.0205901 -52 16 C-52 15.67 -52 15.34 -52 15 C-47.6991499 14.85460172 -43.39820923 14.71235494 -39.09716797 14.57275391 C-37.64076069 14.52507105 -36.18437905 14.47659711 -34.72802734 14.42724609 C-25.14670975 14.10324018 -15.58803658 13.93174425 -6 14 C-5.85957275 13.22567627 -5.71914551 12.45135254 -5.57446289 11.65356445 C-4.94960006 8.76719212 -3.91863572 6.7320152 -2.4375 4.1875 C-1.75494141 3.00220703 -1.75494141 3.00220703 -1.05859375 1.79296875 C-0.53458984 0.90544922 -0.53458984 0.90544922 0 0 Z " fill="#5367C4" transform="translate(300,556)"/>
<path d="M0 0 C1.01492872 3.5149608 0.83453136 5.29007469 -0.4375 8.75 C-0.72496094 9.54921875 -1.01242187 10.3484375 -1.30859375 11.171875 C-1.53675781 11.77515625 -1.76492188 12.3784375 -2 13 C-1.34 13 -0.68 13 0 13 C-0.25 14.875 -0.25 14.875 -1 17 C-3.14668494 18.38495802 -4.43871412 19 -7 19 C-7.12375 19.763125 -7.2475 20.52625 -7.375 21.3125 C-8 24 -8 24 -10 27 C-10.66 27 -11.32 27 -12 27 C-10.26460179 21.07570956 -7.55448391 15.6641012 -4.875 10.125 C-4.40707031 9.15046875 -3.93914062 8.1759375 -3.45703125 7.171875 C-2.30785155 4.77970501 -1.15542757 2.38915684 0 0 Z " fill="#C3CFE1" transform="translate(318,522)"/>
<path d="M0 0 C1.32 0 2.64 0 4 0 C4.33 3.3 4.66 6.6 5 10 C3.906875 10.309375 2.81375 10.61875 1.6875 10.9375 C-0.55407994 11.58337897 -2.7869351 12.2623117 -5 13 C-5.99 12.67 -6.98 12.34 -8 12 C-8 11.34 -8 10.68 -8 10 C-7.01 10 -6.02 10 -5 10 C-5.33 9.34 -5.66 8.68 -6 8 C-6.99 8.495 -6.99 8.495 -8 9 C-7.34 7.68 -6.68 6.36 -6 5 C-5.01 5.33 -4.02 5.66 -3 6 C-3.33 7.32 -3.66 8.64 -4 10 C-3.34 10 -2.68 10 -2 10 C-1.93941406 9.36191406 -1.87882812 8.72382812 -1.81640625 8.06640625 C-1.73261719 7.24011719 -1.64882813 6.41382813 -1.5625 5.5625 C-1.48128906 4.73878906 -1.40007813 3.91507813 -1.31640625 3.06640625 C-1 1 -1 1 0 0 Z " fill="#82868F" transform="translate(64,54)"/>
<path d="M0 0 C0.33 0.99 0.66 1.98 1 3 C0.54625 3.391875 0.0925 3.78375 -0.375 4.1875 C-2.16418199 5.95758994 -2.16418199 5.95758994 -2.9375 8.5625 C-4.22527876 11.51681597 -5.20844578 11.64924796 -8 13 C-8.35412344 14.32796291 -8.68521554 15.66216607 -9 17 C-10.28659163 18.37849103 -11.62913085 19.70529025 -13 21 C-13.88470621 22.07542133 -14.75945093 23.15910087 -15.625 24.25 C-16.40875 25.1575 -17.1925 26.065 -18 27 C-18.66 27 -19.32 27 -20 27 C-20.33 27.99 -20.66 28.98 -21 30 C-23.0625 30.6875 -23.0625 30.6875 -25 31 C-23.0104461 28.32539823 -21.00634941 25.66201915 -19 23 C-18.06607422 21.74509766 -18.06607422 21.74509766 -17.11328125 20.46484375 C-16.49839844 19.65144531 -15.88351563 18.83804688 -15.25 18 C-14.67765625 17.236875 -14.1053125 16.47375 -13.515625 15.6875 C-13.01546875 15.130625 -12.5153125 14.57375 -12 14 C-11.34 14 -10.68 14 -10 14 C-9.75507813 13.44828125 -9.51015625 12.8965625 -9.2578125 12.328125 C-7.74261886 9.52360509 -5.88915874 7.21896877 -3.875 4.75 C-3.15054687 3.85796875 -2.42609375 2.9659375 -1.6796875 2.046875 C-1.12539063 1.37140625 -0.57109375 0.6959375 0 0 Z " fill="#BAC9F1" transform="translate(265,506)"/>
<path d="M0 0 C5.61 0.33 11.22 0.66 17 1 C17 1.33 17 1.66 17 2 C21.95 2.33 26.9 2.66 32 3 C32 3.33 32 3.66 32 4 C18.14 4 4.28 4 -10 4 C-10 3.67 -10 3.34 -10 3 C-6.7 3 -3.4 3 0 3 C0 2.01 0 1.02 0 0 Z " fill="#0C1424" transform="translate(496,514)"/>
<path d="M0 0 C1.32 0.66 2.64 1.32 4 2 C2.73147606 3.60599349 1.460089 5.20972575 0.1875 6.8125 C-0.87404297 8.15248047 -0.87404297 8.15248047 -1.95703125 9.51953125 C-3.56411377 11.47076911 -5.17040423 13.26274976 -7 15 C-7.66 13.35 -8.32 11.7 -9 10 C-9.99 10.33 -10.98 10.66 -12 11 C-12 10.01 -12 9.02 -12 8 C-11.01 8 -10.02 8 -9 8 C-8.67 7.34 -8.34 6.68 -8 6 C-7.01 6 -6.02 6 -5 6 C-4.731875 5.38125 -4.46375 4.7625 -4.1875 4.125 C-3 2 -3 2 0 0 Z " fill="#C8D1D8" transform="translate(413,498)"/>
<path d="M0 0 C3.3 0 6.6 0 10 0 C10 0.66 10 1.32 10 2 C9.01 2 8.02 2 7 2 C7 5.3 7 8.6 7 12 C6.34 12 5.68 12 5 12 C5 8.7 5 5.4 5 2 C4.34 2 3.68 2 3 2 C3 5.63 3 9.26 3 13 C2.01 13 1.02 13 0 13 C0 8.71 0 4.42 0 0 Z " fill="#848990" transform="translate(123,54)"/>
<path d="M0 0 C0.33 0.66 0.66 1.32 1 2 C-6.26 2.66 -13.52 3.32 -21 4 C-21.66 6.31 -22.32 8.62 -23 11 C-23.99 11 -24.98 11 -26 11 C-26.33 12.32 -26.66 13.64 -27 15 C-28 12 -28 12 -27.0390625 9.5546875 C-26.57242187 8.67039062 -26.10578125 7.78609375 -25.625 6.875 C-25.16351563 5.98554687 -24.70203125 5.09609375 -24.2265625 4.1796875 C-23 2 -23 2 -22 1 C-20.36743242 0.84285346 -18.72864662 0.74914586 -17.08984375 0.68359375 C-15.60581055 0.62075195 -15.60581055 0.62075195 -14.09179688 0.55664062 C-12.53041992 0.49766602 -12.53041992 0.49766602 -10.9375 0.4375 C-9.89271484 0.39431641 -8.84792969 0.35113281 -7.77148438 0.30664062 C-5.18113116 0.20018775 -2.59067814 0.0981724 0 0 Z " fill="#B8C4F3" transform="translate(347,508)"/>
<path d="M0 0 C0.66 0.33 1.32 0.66 2 1 C1.67 10.57 1.34 20.14 1 30 C0.34 29.67 -0.32 29.34 -1 29 C-1.02891546 24.54168018 -1.04676981 20.08338431 -1.0625 15.625 C-1.07087891 14.35398437 -1.07925781 13.08296875 -1.08789062 11.7734375 C-1.09111328 10.56171875 -1.09433594 9.35 -1.09765625 8.1015625 C-1.10289307 6.98088379 -1.10812988 5.86020508 -1.11352539 4.70556641 C-1 2 -1 2 0 0 Z " fill="#ACBAEF" transform="translate(196,541)"/>
<path d="M0 0 C0.66 0.33 1.32 0.66 2 1 C1.67 1.99 1.34 2.98 1 4 C0.77674186 6.05893621 0.59294241 8.12233653 0.4375 10.1875 C0.35371094 11.27417969 0.26992187 12.36085938 0.18359375 13.48046875 C0.12300781 14.31191406 0.06242187 15.14335938 0 16 C-0.33 16 -0.66 16 -1 16 C-1 12.04 -1 8.08 -1 4 C-1.66 4 -2.32 4 -3 4 C-3 6.64 -3 9.28 -3 12 C-3.33 11.34 -3.66 10.68 -4 10 C-4.66 10 -5.32 10 -6 10 C-6 8.35 -6 6.7 -6 5 C-8.31 4.67 -10.62 4.34 -13 4 C-11.68 3.67 -10.36 3.34 -9 3 C-9 2.34 -9 1.68 -9 1 C-6.66705225 0.95758277 -4.33297433 0.95907063 -2 1 C-1.67 1.33 -1.34 1.66 -1 2 C-0.67 1.34 -0.34 0.68 0 0 Z " fill="#C0C4CC" transform="translate(118,50)"/>
<path d="M0 0 C3.72301503 -0.47730962 4.79191085 -0.1387261 8 2 C8.33 1.34 8.66 0.68 9 0 C9.125 5.75 9.125 5.75 8 8 C7.34 8 6.68 8 6 8 C6 6.68 6 5.36 6 4 C2.88214887 4.64644661 2.88214887 4.64644661 2 7 C0.02 7 -1.96 7 -4 7 C-2.79618552 4.50638429 -1.54571278 2.31856917 0 0 Z " fill="#C6CAD3" transform="translate(54,56)"/>
<path d="M0 0 C3.96 0 7.92 0 12 0 C12 0.33 12 0.66 12 1 C8.7 1 5.4 1 2 1 C2 4.3 2 7.6 2 11 C0.35 11.66 -1.3 12.32 -3 13 C-3 10.36 -3 7.72 -3 5 C-2.34 5 -1.68 5 -1 5 C-1.33 4.01 -1.66 3.02 -2 2 C-1.34 2 -0.68 2 0 2 C0 1.34 0 0.68 0 0 Z " fill="#CBCFD7" transform="translate(121,53)"/>
<path d="M0 0 C0.99 0.33 1.98 0.66 3 1 C1.21285146 3.3161206 -0.57941805 5.62793272 -2.375 7.9375 C-2.88289062 8.59685547 -3.39078125 9.25621094 -3.9140625 9.93554688 C-4.64882812 10.87817383 -4.64882812 10.87817383 -5.3984375 11.83984375 C-5.84880371 12.42113037 -6.29916992 13.00241699 -6.76318359 13.60131836 C-8 15 -8 15 -10 16 C-10.33 14.35 -10.66 12.7 -11 11 C-10.34 11 -9.68 11 -9 11 C-9 10.34 -9 9.68 -9 9 C-8.01 9 -7.02 9 -6 9 C-5.938125 8.443125 -5.87625 7.88625 -5.8125 7.3125 C-4.66626128 4.05012827 -2.50609803 2.31332126 0 0 Z " fill="#C0CFE7" transform="translate(220,512)"/>
<path d="M0 0 C1.33978732 4.70851773 0.0959099 6.64050741 -2 11 C-2.66 11 -3.32 11 -4 11 C-4.27263672 11.88751953 -4.27263672 11.88751953 -4.55078125 12.79296875 C-7.25850509 21.30494164 -7.25850509 21.30494164 -10 25 C-10.66 25 -11.32 25 -12 25 C-10.37317535 19.29676416 -7.66802013 14.31986097 -4.875 9.125 C-4.40707031 8.24585938 -3.93914062 7.36671875 -3.45703125 6.4609375 C-2.3087907 4.30505729 -1.15636097 2.15153223 0 0 Z " fill="#5364C5" transform="translate(299,501)"/>
<path d="M0 0 C0.66 0 1.32 0 2 0 C0.65150163 4.35970831 -1.04907846 8.31341438 -3.125 12.375 C-3.66382813 13.43460938 -4.20265625 14.49421875 -4.7578125 15.5859375 C-5.16773438 16.38257813 -5.57765625 17.17921875 -6 18 C-7.54070648 13.19924794 -6.71200654 8.67509479 -5 4 C-2.375 2.375 -2.375 2.375 0 2 C0 1.34 0 0.68 0 0 Z " fill="#C0D0F1" transform="translate(288,518)"/>
<path d="M0 0 C2.375 -0.125 2.375 -0.125 5 0 C5.66 0.66 6.32 1.32 7 2 C6.44444444 6.55555556 6.44444444 6.55555556 5 8 C3.33382885 8.04063832 1.66611905 8.042721 0 8 C0 5.36 0 2.72 0 0 Z " fill="#CCD0DA" transform="translate(87,56)"/>
<path d="M0 0 C0.33 1.32 0.66 2.64 1 4 C0.4225 4.350625 -0.155 4.70125 -0.75 5.0625 C-3.22188463 7.19106732 -4.40029124 9.42729069 -5.91796875 12.28125 C-7.49508605 14.78641827 -9.59304131 16.32850091 -12 18 C-12.66 17.67 -13.32 17.34 -14 17 C-11.85507879 14.35342605 -9.70891028 11.70786638 -7.5625 9.0625 C-6.95083984 8.30775391 -6.33917969 7.55300781 -5.70898438 6.77539062 C-5.12568359 6.05673828 -4.54238281 5.33808594 -3.94140625 4.59765625 C-3.40201416 3.93258057 -2.86262207 3.26750488 -2.30688477 2.58227539 C-1 1 -1 1 0 0 Z " fill="#C0CEF6" transform="translate(280,488)"/>
<path d="M0 0 C0.33 0 0.66 0 1 0 C1.13593443 2.54348425 1.23448907 5.07961496 1.3125 7.625 C1.35439453 8.33785156 1.39628906 9.05070312 1.43945312 9.78515625 C1.5343567 13.92295233 1.17778452 16.28665858 -1.51953125 19.5234375 C-2.33808594 20.34070313 -3.15664063 21.15796875 -4 22 C-4.66 21.34 -5.32 20.68 -6 20 C-5.54917531 18.53932801 -5.08906463 17.08151968 -4.625 15.625 C-4.36976563 14.81289063 -4.11453125 14.00078125 -3.8515625 13.1640625 C-3 11 -3 11 -1 9 C-0.53993654 6.79749008 -0.53993654 6.79749008 -0.375 4.375 C-0.26285156 3.14910156 -0.26285156 3.14910156 -0.1484375 1.8984375 C-0.09945313 1.27195312 -0.05046875 0.64546875 0 0 Z " fill="#262C3C" transform="translate(454,464)"/>
<path d="M0 0 C1.86978511 3.73957022 -0.53890139 7.9781572 -1.7421875 11.77734375 C-3.28603037 15.73284178 -4.98155442 18.06540013 -8 21 C-8.33 20.34 -8.66 19.68 -9 19 C-8.14453125 16.6796875 -8.14453125 16.6796875 -6.8125 13.875 C-6.35101563 12.89660156 -5.88953125 11.91820312 -5.4140625 10.91015625 C-3.63908857 7.25724029 -1.84356221 3.61884435 0 0 Z " fill="#B8C8F4" transform="translate(305,549)"/>
<path d="M0 0 C0.33 0 0.66 0 1 0 C1 1.98 1 3.96 1 6 C6.61 6 12.22 6 18 6 C18 6.33 18 6.66 18 7 C17.15695313 7.04898438 16.31390625 7.09796875 15.4453125 7.1484375 C14.34960938 7.22320312 13.25390625 7.29796875 12.125 7.375 C10.48917969 7.47941406 10.48917969 7.47941406 8.8203125 7.5859375 C5.86953526 7.73253491 5.86953526 7.73253491 4 10 C3.34 9.67 2.68 9.34 2 9 C1.67 9.66 1.34 10.32 1 11 C-0.625 10 -0.625 10 -2 8 C-1.65009645 5.1841095 -0.84980278 2.7283142 0 0 Z " fill="#C8CCD2" transform="translate(42,61)"/>
<path d="M0 0 C0.33 0 0.66 0 1 0 C1 4.29 1 8.58 1 13 C-2 13 -2 13 -5 12 C-4.34 12 -3.68 12 -3 12 C-3 8.7 -3 5.4 -3 2 C-2.01 2 -1.02 2 0 2 C0 1.34 0 0.68 0 0 Z " fill="#C5C9D2" transform="translate(133,54)"/>
<path d="M0 0 C1.04449911 3.13349732 0.93423645 3.98968256 0 7 C-0.66 7 -1.32 7 -2 7 C-2.33 7.99 -2.66 8.98 -3 10 C-4 11 -5 12 -6 13 C-7.32 12.67 -8.64 12.34 -10 12 C-6.7 8.04 -3.4 4.08 0 0 Z " fill="#5567CD" transform="translate(215,522)"/>
<path d="M0 0 C0.33 0 0.66 0 1 0 C0.46217223 7.52958877 -1.83716274 12.7557441 -6 19 C-6.66 19 -7.32 19 -8 19 C-6.60121198 14.53202662 -4.86369228 10.36177921 -2.875 6.125 C-2.33617187 4.97257813 -1.79734375 3.82015625 -1.2421875 2.6328125 C-0.62730469 1.32957031 -0.62730469 1.32957031 0 0 Z " fill="#B5C5F0" transform="translate(314,530)"/>
<path d="M0 0 C0.66 0 1.32 0 2 0 C0.79618552 2.49361571 -0.45428722 4.68143083 -2 7 C-2.66 7 -3.32 7 -4 7 C-4.2475 7.5775 -4.495 8.155 -4.75 8.75 C-6.16683317 11.3002997 -7.87627537 13.01785701 -10 15 C-9.49325789 10.56600657 -7.89488631 8.33350545 -5 5 C-4.34 4.01 -3.68 3.02 -3 2 C-2.34 2.33 -1.68 2.66 -1 3 C-0.67 2.01 -0.34 1.02 0 0 Z " fill="#BCCDF2" transform="translate(246,481)"/>
<path d="M0 0 C1.134375 0.020625 2.26875 0.04125 3.4375 0.0625 C1.4375 3.0625 -0.5625 6.0625 -2.5625 9.0625 C-3.2225 9.0625 -3.8825 9.0625 -4.5625 9.0625 C-4.66015625 2.91015625 -4.66015625 2.91015625 -4.5625 1.0625 C-3.5625 0.0625 -3.5625 0.0625 0 0 Z " fill="#CBCFD8" transform="translate(50.5625,49.9375)"/>
<path d="M0 0 C2 2 2 2 2 5 C1.01 5 0.02 5 -1 5 C-1.33 6.98 -1.66 8.96 -2 11 C-3.66666667 11 -5.33333333 11 -7 11 C-7.33 11.99 -7.66 12.98 -8 14 C-8.66 13.67 -9.32 13.34 -10 13 C-5.05 6.565 -5.05 6.565 0 0 Z " fill="#5266CA" transform="translate(226,508)"/>
<path d="M0 0 C0.66 0 1.32 0 2 0 C2 3.96 2 7.92 2 12 C1.34 12 0.68 12 0 12 C0 11.34 0 10.68 0 10 C-0.99 10.66 -1.98 11.32 -3 12 C-6.1875 12.125 -6.1875 12.125 -9 12 C-3 8 -3 8 0 8 C0 5.36 0 2.72 0 0 Z " fill="#7C8189" transform="translate(115,54)"/>
<path d="M0 0 C3.35478456 3.08993314 5.79241806 5.53194683 7 10 C6.67 10.66 6.34 11.32 6 12 C3.66666667 12 1.33333333 12 -1 12 C-0.01 11.01 0.98 10.02 2 9 C1.34 8.34 0.68 7.68 0 7 C0.33 6.01 0.66 5.02 1 4 C0.61067144 1.85744207 0.61067144 1.85744207 0 0 Z " fill="#C3CAD2" transform="translate(569,504)"/>
<path d="M0 0 C0.99 0.33 1.98 0.66 3 1 C2.67 2.32 2.34 3.64 2 5 C2.66 5 3.32 5 4 5 C4 4.34 4 3.68 4 3 C6.31 3.33 8.62 3.66 11 4 C11 4.33 11 4.66 11 5 C9.906875 5.309375 8.81375 5.61875 7.6875 5.9375 C5.44592006 6.58337897 3.2130649 7.2623117 1 8 C0.01 7.67 -0.98 7.34 -2 7 C-2 6.34 -2 5.68 -2 5 C-1.01 5 -0.02 5 1 5 C0.67 4.34 0.34 3.68 0 3 C-0.99 3.495 -0.99 3.495 -2 4 C-1.34 2.68 -0.68 1.36 0 0 Z " fill="#898D96" transform="translate(58,59)"/>
<path d="M0 0 C0.66 0.66 1.32 1.32 2 2 C2.66 1.34 3.32 0.68 4 0 C5.20272819 2.40545638 5.10071472 3.94996953 5.0625 6.625 C5.05347656 7.44226563 5.04445313 8.25953125 5.03515625 9.1015625 C5.02355469 9.72804688 5.01195312 10.35453125 5 11 C1.66442368 8.0094833 -0.15083921 5.06815373 -2 1 C-1.34 0.67 -0.68 0.34 0 0 Z " fill="#C5CBD6" transform="translate(602,513)"/>
<path d="M0 0 C0.80784795 2.33429153 1.11635505 3.62242947 0.37915039 6.01464844 C0.03875732 6.7059082 -0.30163574 7.39716797 -0.65234375 8.109375 C-1.01650391 8.86347656 -1.38066406 9.61757813 -1.75585938 10.39453125 C-2.34077148 11.56048828 -2.34077148 11.56048828 -2.9375 12.75 C-3.51661133 13.93916016 -3.51661133 13.93916016 -4.10742188 15.15234375 C-5.06107367 17.10674125 -6.0291649 19.05408106 -7 21 C-8.29843147 17.10470558 -7.37267111 15.89446418 -5.75 12.1875 C-5.28722656 11.12402344 -4.82445312 10.06054688 -4.34765625 8.96484375 C-2.96885469 5.93148032 -1.55499323 2.94630295 0 0 Z " fill="#C3D1F9" transform="translate(306,480)"/>
<path d="M0 0 C2 3 2 3 1.625 5.6875 C1.41875 6.450625 1.2125 7.21375 1 8 C-1.31 8.33 -3.62 8.66 -6 9 C-2.25 2.25 -2.25 2.25 0 0 Z " fill="#C1C8D3" transform="translate(414,532)"/>
<path d="M0 0 C0.61875 0.804375 1.2375 1.60875 1.875 2.4375 C3.74164041 5.03874519 3.74164041 5.03874519 6 6 C6.625 9.0625 6.625 9.0625 7 12 C6.01 12.495 6.01 12.495 5 13 C3.96387729 11.59447701 2.94655075 10.17508306 1.9375 8.75 C1.36902344 7.96109375 0.80054688 7.1721875 0.21484375 6.359375 C-1 4 -1 4 -0.68359375 1.703125 C-0.45800781 1.14109375 -0.23242188 0.5790625 0 0 Z " fill="#161D2E" transform="translate(585,521)"/>
<path d="M0 0 C0.33 0 0.66 0 1 0 C1 3.96 1 7.92 1 12 C0.01 12 -0.98 12 -2 12 C-2 10.68 -2 9.36 -2 8 C-2.99 8 -3.98 8 -5 8 C-5 7.01 -5 6.02 -5 5 C-5.66 4.67 -6.32 4.34 -7 4 C-5.35 4 -3.7 4 -2 4 C-2 4.66 -2 5.32 -2 6 C-1.34 6.33 -0.68 6.66 0 7 C0 4.69 0 2.38 0 0 Z " fill="#989CA4" transform="translate(144,55)"/>
<path d="M0 0 C4.29 0 8.58 0 13 0 C12.67 0.99 12.34 1.98 12 3 C11.67 2.34 11.34 1.68 11 1 C9.68 1 8.36 1 7 1 C7 1.66 7 2.32 7 3 C4.36 3.33 1.72 3.66 -1 4 C-0.67 2.68 -0.34 1.36 0 0 Z " fill="#767B80" transform="translate(47,46)"/>
<path d="M0 0 C2.475 0.495 2.475 0.495 5 1 C5 1.66 5 2.32 5 3 C5.99 3.33 6.98 3.66 8 4 C7.01 4.495 7.01 4.495 6 5 C5.67 5.66 5.34 6.32 5 7 C4.01 7 3.02 7 2 7 C0 5 0 5 -0.125 2.375 C-0.08375 1.59125 -0.0425 0.8075 0 0 Z " fill="#C8CDD2" transform="translate(75,64)"/>
<path d="M0 0 C0.66 1.32 1.32 2.64 2 4 C-2.18461538 8.92307692 -2.18461538 8.92307692 -6.3125 9.3125 C-7.6428125 9.1578125 -7.6428125 9.1578125 -9 9 C-8.071875 8.87625 -8.071875 8.87625 -7.125 8.75 C-4.85973865 8.20746992 -4.85973865 8.20746992 -3.9375 6.1875 C-3.628125 5.465625 -3.31875 4.74375 -3 4 C-2.02418241 2.64886795 -1.02970259 1.31053056 0 0 Z " fill="#CCD5E9" transform="translate(300,565)"/>
<path d="M0 0 C1.8125 0.125 1.8125 0.125 4 1 C5.75 4.0625 5.75 4.0625 7 7 C6.34 7.66 5.68 8.32 5 9 C4.67 8.01 4.34 7.02 4 6 C1.99983534 4.79117904 1.99983534 4.79117904 0 4 C0 2.68 0 1.36 0 0 Z " fill="#1E2735" transform="translate(572,479)"/>
<path d="M0 0 C1.33453734 4.04900444 0.51356885 6.37881926 -1.03125 10.2265625 C-2 12 -2 12 -4.1875 13.5 C-4.785625 13.665 -5.38375 13.83 -6 14 C-5.70222656 13.43667969 -5.40445312 12.87335937 -5.09765625 12.29296875 C-3.99809713 9.99602497 -3.2035511 7.73899695 -2.4375 5.3125 C-1.11004785 1.11004785 -1.11004785 1.11004785 0 0 Z " fill="#4557D7" transform="translate(294,514)"/>
<path d="M0 0 C4.95 0 9.9 0 15 0 C15 0.33 15 0.66 15 1 C11.7 1.33 8.4 1.66 5 2 C4.89459074 4.21081851 4.89459074 4.21081851 6 7 C4.35 6.67 2.7 6.34 1 6 C1.20625 5.38125 1.4125 4.7625 1.625 4.125 C1.74875 3.42375 1.8725 2.7225 2 2 C1.34 1.34 0.68 0.68 0 0 Z " fill="#CCD0D8" transform="translate(386,481)"/>
<path d="M0 0 C0.33 0 0.66 0 1 0 C1 2.31 1 4.62 1 7 C3.31 6.34 5.62 5.68 8 5 C7.125 8.875 7.125 8.875 6 10 C3.5 10.125 3.5 10.125 1 10 C0 9 0 9 -0.09765625 6.93359375 C-0.08605469 6.10988281 -0.07445313 5.28617188 -0.0625 4.4375 C-0.05347656 3.61121094 -0.04445313 2.78492188 -0.03515625 1.93359375 C-0.02355469 1.29550781 -0.01195313 0.65742187 0 0 Z " fill="#8D919A" transform="translate(86,57)"/>
<path d="M0 0 C1.24546405 2.49092811 0.7767578 3.41080733 0 6 C-0.66 6 -1.32 6 -2 6 C-2.33 7.32 -2.66 8.64 -3 10 C-4.65 10.33 -6.3 10.66 -8 11 C-7.04454634 9.53977837 -6.08553322 8.08188532 -5.125 6.625 C-4.59132813 5.81289063 -4.05765625 5.00078125 -3.5078125 4.1640625 C-2 2 -2 2 0 0 Z " fill="#B7C0CB" transform="translate(442,495)"/>
<path d="M0 0 C0.33 0 0.66 0 1 0 C1.66 3.63 2.32 7.26 3 11 C2.01 11 1.02 11 0 11 C0 10.34 0 9.68 0 9 C-0.99 9 -1.98 9 -3 9 C-3 8.34 -3 7.68 -3 7 C-2.01 7 -1.02 7 0 7 C0 6.34 0 5.68 0 5 C-0.99 5 -1.98 5 -3 5 C-3 4.34 -3 3.68 -3 3 C-2.01 3 -1.02 3 0 3 C0 2.01 0 1.02 0 0 Z " fill="#7A7E88" transform="translate(80,56)"/>
<path d="M0 0 C0.33 1.65 0.66 3.3 1 5 C1 3.68 1 2.36 1 1 C2.32 1 3.64 1 5 1 C4.67 1.66 4.34 2.32 4 3 C3.34 2.67 2.68 2.34 2 2 C2 3.32 2 4.64 2 6 C0.35 6 -1.3 6 -3 6 C-3 4.68 -3 3.36 -3 2 C-3.99 1.67 -4.98 1.34 -6 1 C-3.92446352 0.4465236 -2.15634036 0 0 0 Z " fill="#BBC0C6" transform="translate(140,52)"/>
<path d="M0 0 C0.77772405 2.33317216 1.42415568 4.61435923 2 7 C0.02 7.66 -1.96 8.32 -4 9 C-4.33 8.01 -4.66 7.02 -5 6 C-3.59554165 3.7363436 -1.8032087 1.9791315 0 0 Z " fill="#1F2737" transform="translate(403,517)"/>
<path d="M0 0 C0.66 0.33 1.32 0.66 2 1 C-0.31 3.97 -2.62 6.94 -5 10 C-5.33 8.68 -5.66 7.36 -6 6 C-5.01 5.67 -4.02 5.34 -3 5 C-3 3.68 -3 2.36 -3 1 C-2.01 0.67 -1.02 0.34 0 0 Z " fill="#BECAF1" transform="translate(234,496)"/>
<path d="M0 0 C2.31 0 4.62 0 7 0 C7.33 0.66 7.66 1.32 8 2 C7.67 2.99 7.34 3.98 7 5 C5.35 5 3.7 5 2 5 C1.67 3.68 1.34 2.36 1 1 C0.67 2.32 0.34 3.64 0 5 C0 3.35 0 1.7 0 0 Z " fill="#9B9FA7" transform="translate(73,54)"/>
<path d="M0 0 C0.33 0 0.66 0 1 0 C1 5.28 1 10.56 1 16 C-0.32 16 -1.64 16 -3 16 C-2.68289063 15.29488281 -2.36578125 14.58976563 -2.0390625 13.86328125 C-0.95461714 10.87494121 -0.6035641 8.34930342 -0.375 5.1875 C-0.26285156 3.72376953 -0.26285156 3.72376953 -0.1484375 2.23046875 C-0.09945313 1.49441406 -0.05046875 0.75835938 0 0 Z " fill="#181F2D" transform="translate(454,542)"/>
<path d="M0 0 C0.99 0.66 1.98 1.32 3 2 C2.6875 3.9375 2.6875 3.9375 2 6 C1.01 6.33 0.02 6.66 -1 7 C-2.66710346 8.49985609 -2.66710346 8.49985609 -4 10 C-4.66 9.67 -5.32 9.34 -6 9 C-4.73046875 7.53515625 -3.4609375 6.0703125 -2.19140625 4.60546875 C-0.79128769 2.89287029 -0.79128769 2.89287029 0 0 Z " fill="#5067CD" transform="translate(254,472)"/>
<path d="M0 0 C5.61 0 11.22 0 17 0 C17 0.33 17 0.66 17 1 C12.71 1 8.42 1 4 1 C3.67 1.99 3.34 2.98 3 4 C2.01 3.67 1.02 3.34 0 3 C0 2.01 0 1.02 0 0 Z " fill="#8E9397" transform="translate(43,45)"/>
<path d="M0 0 C-0.33 1.98 -0.66 3.96 -1 6 C-1.66 5.67 -2.32 5.34 -3 5 C-3.99 5.66 -4.98 6.32 -6 7 C-6.33 5.68 -6.66 4.36 -7 3 C-2.25 0 -2.25 0 0 0 Z " fill="#C7CFD5" transform="translate(439,505)"/>
<path d="M0 0 C0.66 0 1.32 0 2 0 C1.57405412 1.44096586 1.13373367 2.87768712 0.6875 4.3125 C0.44386719 5.11300781 0.20023437 5.91351563 -0.05078125 6.73828125 C-1.04182023 9.09964573 -2.08074943 10.33879993 -4 12 C-4 9.36 -4 6.72 -4 4 C-3.34 4 -2.68 4 -2 4 C-1.34 2.68 -0.68 1.36 0 0 Z " fill="#C9D5E0" transform="translate(301,487)"/>
<path d="M0 0 C0.99 0.33 1.98 0.66 3 1 C1.02 4.96 -0.96 8.92 -3 13 C-4.23593891 9.29218328 -3.5678132 8.32489747 -2.0625 4.8125 C-1.68222656 3.91144531 -1.30195313 3.01039063 -0.91015625 2.08203125 C-0.60980469 1.39496094 -0.30945313 0.70789063 0 0 Z " fill="#5767CD" transform="translate(322,509)"/>
<path d="M0 0 C1.9375 0.375 1.9375 0.375 4 1 C4.33 1.66 4.66 2.32 5 3 C3.35 4.65 1.7 6.3 0 8 C0 7.01 0 6.02 0 5 C-0.33 4.67 -0.66 4.34 -1 4 C-0.5625 1.9375 -0.5625 1.9375 0 0 Z " fill="#182234" transform="translate(434,497)"/>
<path d="M0 0 C0.99 0.33 1.98 0.66 3 1 C2.02471263 2.33617352 1.04466681 3.6688751 0.0625 5 C-0.48277344 5.7425 -1.02804688 6.485 -1.58984375 7.25 C-2.28787109 8.11625 -2.28787109 8.11625 -3 9 C-3.33 9 -3.66 9 -4 9 C-4.25 6.75 -4.25 6.75 -4 4 C-2 1.6875 -2 1.6875 0 0 Z " fill="#BFCCF5" transform="translate(220,512)"/>
<path d="M0 0 C0.99 0.33 1.98 0.66 3 1 C0.69 3.97 -1.62 6.94 -4 10 C-5 7 -5 7 -4.25 5 C-3.01451365 3.02322184 -1.71960324 1.56327567 0 0 Z " fill="#4F65C5" transform="translate(263,505)"/>
<path d="M0 0 C0.33 1.32 0.66 2.64 1 4 C-1.31 5.98 -3.62 7.96 -6 10 C-6.66 9.67 -7.32 9.34 -8 9 C-5.36 6.03 -2.72 3.06 0 0 Z " fill="#B4C3F2" transform="translate(280,488)"/>
<path d="M0 0 C0.66 0.99 1.32 1.98 2 3 C0.6875 5.5 0.6875 5.5 -1 8 C-1.99 8 -2.98 8 -4 8 C-4 8.66 -4 9.32 -4 10 C-4.66 9.67 -5.32 9.34 -6 9 C-4.02 6.03 -2.04 3.06 0 0 Z " fill="#B6C9F2" transform="translate(294,469)"/>
<path d="M0 0 C0.5775 0.78375 1.155 1.5675 1.75 2.375 C3.87020189 4.84856887 5.12324588 5.71042057 8 7 C8.33 7.66 8.66 8.32 9 9 C6.75 9.3125 6.75 9.3125 4 9 C1.6875 6.75 1.6875 6.75 0 4 C0 2.68 0 1.36 0 0 Z " fill="#8B8F98" transform="translate(101,58)"/>
<path d="M0 0 C1.8125 0.125 1.8125 0.125 4 1 C5.75 4.0625 5.75 4.0625 7 7 C6.01 7 5.02 7 4 7 C2.02 3.535 2.02 3.535 0 0 Z " fill="#1C2633" transform="translate(599,545)"/>
<path d="M0 0 C0.99 0.33 1.98 0.66 3 1 C0.69 3.64 -1.62 6.28 -4 9 C-4.66 8.01 -5.32 7.02 -6 6 C-5.38125 5.938125 -4.7625 5.87625 -4.125 5.8125 C-1.72238859 5.171081 -1.72238859 5.171081 -0.75 2.4375 C-0.5025 1.633125 -0.255 0.82875 0 0 Z " fill="#B9CAF4" transform="translate(203,533)"/>
<path d="M0 0 C1.60080151 4.00200378 0.29279692 7.04556236 -1 11 C-3 9 -3 9 -3.046875 7.08984375 C-2.94890625 6.37957031 -2.8509375 5.66929687 -2.75 4.9375 C-2.66234375 4.22464844 -2.5746875 3.51179687 -2.484375 2.77734375 C-2.32453125 2.19082031 -2.1646875 1.60429688 -2 1 C-1.34 0.67 -0.68 0.34 0 0 Z " fill="#CCD6D3" transform="translate(313,540)"/>
<path d="M0 0 C0.66 0.33 1.32 0.66 2 1 C0.83269511 4.95087809 -0.44837454 7.78425284 -3 11 C-2.69217504 9.35328588 -2.37860766 7.70764424 -2.0625 6.0625 C-1.88847656 5.14597656 -1.71445312 4.22945312 -1.53515625 3.28515625 C-1 1 -1 1 0 0 Z " fill="#4E5FC8" transform="translate(316,521)"/>
<path d="M0 0 C0.99 0 1.98 0 3 0 C1.25 4.875 1.25 4.875 -1 6 C-1.99 5.67 -2.98 5.34 -4 5 C-4 4.34 -4 3.68 -4 3 C-2.68 2.67 -1.36 2.34 0 2 C0 1.34 0 0.68 0 0 Z " fill="#172330" transform="translate(430,506)"/>
<path d="M0 0 C0.95465783 2.16967689 1.14401212 3.56328793 0.3984375 5.82421875 C-0.35870385 7.5684743 -1.17609198 9.28627131 -2 11 C-2.66 11 -3.32 11 -4 11 C-3.48964169 6.6109185 -2.47785723 3.66291938 0 0 Z " fill="#4A5DBC" transform="translate(299,501)"/>
<path d="M0 0 C1.49341969 2.98683937 0.40648676 4.95160978 -0.4375 8.125 C-0.72496094 9.22070312 -1.01242187 10.31640625 -1.30859375 11.4453125 C-1.53675781 12.28835938 -1.76492188 13.13140625 -2 14 C-2.66 12.68 -3.32 11.36 -4 10 C-3.67 9.67 -3.34 9.34 -3 9 C-2.855625 7.865625 -2.71125 6.73125 -2.5625 5.5625 C-2 2 -2 2 0 0 Z " fill="#C7D2E8" transform="translate(293,504)"/>
<path d="M0 0 C1 3 1 3 -0.4375 6.1875 C-1.2109375 7.5796875 -1.2109375 7.5796875 -2 9 C-3.32 8.34 -4.64 7.68 -6 7 C-4.625 5 -4.625 5 -3 3 C-2.34 3 -1.68 3 -1 3 C-0.67 2.01 -0.34 1.02 0 0 Z " fill="#5769C3" transform="translate(245,485)"/>
<path d="M0 0 C0.99 0 1.98 0 3 0 C2.34 2.31 1.68 4.62 1 7 C-0.32 6.34 -1.64 5.68 -3 5 C-1.6875 2.5 -1.6875 2.5 0 0 Z " fill="#CBCFDC" transform="translate(453,481)"/>
<path d="M0 0 C0.99 0.66 1.98 1.32 3 2 C2.01 3.485 2.01 3.485 1 5 C0.67 4.67 0.34 4.34 0 4 C-0.33 5.32 -0.66 6.64 -1 8 C0.98 8.495 0.98 8.495 3 9 C1.35 9 -0.3 9 -2 9 C-2.125 5.625 -2.125 5.625 -2 2 C-1.34 1.34 -0.68 0.68 0 0 Z " fill="#83888F" transform="translate(45,58)"/>
<path d="M0 0 C2.475 0.495 2.475 0.495 5 1 C5 3.31 5 5.62 5 8 C2.74754119 5.31158141 1.11786042 3.35358125 0 0 Z " fill="#C3CDD4" transform="translate(586,494)"/>
<path d="M0 0 C1.65 0.33 3.3 0.66 5 1 C4.01 2.485 4.01 2.485 3 4 C2.34 4 1.68 4 1 4 C0.34 5.32 -0.32 6.64 -1 8 C-1.125 2.25 -1.125 2.25 0 0 Z " fill="#C7D4E6" transform="translate(296,467)"/>
<path d="M0 0 C1 2 1 2 0.25 5 C-1 8 -1 8 -4 10 C-3.52449439 8.51965236 -3.04448784 7.04074979 -2.5625 5.5625 C-2.29566406 4.73878906 -2.02882813 3.91507813 -1.75390625 3.06640625 C-1 1 -1 1 0 0 Z " fill="#A3B3ED" transform="translate(305,549)"/>
<path d="M0 0 C0 0.66 0 1.32 0 2 C-0.66 2 -1.32 2 -2 2 C-2 2.66 -2 3.32 -2 4 C-1.34 4.33 -0.68 4.66 0 5 C-0.99 5.33 -1.98 5.66 -3 6 C-3.99 5.01 -4.98 4.02 -6 3 C-3.375 0 -3.375 0 0 0 Z " fill="#232B3E" transform="translate(390,538)"/>
<path d="M0 0 C0.66 0.33 1.32 0.66 2 1 C1.67 1.99 1.34 2.98 1 4 C0.34 4 -0.32 4 -1 4 C-1 4.66 -1 5.32 -1 6 C-1.99 6 -2.98 6 -4 6 C-2.84826645 3.53199953 -1.95216435 1.95216435 0 0 Z " fill="#5567C8" transform="translate(202,538)"/>
<path d="M0 0 C0.99 0.33 1.98 0.66 3 1 C1.35 2.98 -0.3 4.96 -2 7 C-2.33 6.01 -2.66 5.02 -3 4 C-1.5625 1.8125 -1.5625 1.8125 0 0 Z " fill="#B9CEF6" transform="translate(251,474)"/>
<path d="M0 0 C0.66 0 1.32 0 2 0 C2.625 1.8125 2.625 1.8125 3 4 C2.01 5.485 2.01 5.485 1 7 C0.34 6.34 -0.32 5.68 -1 5 C-0.625 2.375 -0.625 2.375 0 0 Z " fill="#C5C9D3" transform="translate(104,57)"/>
<path d="M0 0 C0.33 0 0.66 0 1 0 C1.125 5.75 1.125 5.75 0 8 C-0.66 8 -1.32 8 -2 8 C-2.33 6.02 -2.66 4.04 -3 2 C-2.01 2 -1.02 2 0 2 C0 1.34 0 0.68 0 0 Z " fill="#A8ACB5" transform="translate(62,56)"/>
<path d="M0 0 C0 0.66 0 1.32 0 2 C-4.455 2.495 -4.455 2.495 -9 3 C-5.92807025 0.26939578 -4.09590633 -0.34132553 0 0 Z " fill="#BCC9F4" transform="translate(295,571)"/>
<path d="M0 0 C0.99 0.33 1.98 0.66 3 1 C3.33 2.98 3.66 4.96 4 7 C3.01 7.495 3.01 7.495 2 8 C-0.1519437 4.77208445 -0.20086443 3.71599191 0 0 Z " fill="#1F2335" transform="translate(588,526)"/>
<path d="M0 0 C1.04449911 3.13349732 0.93423645 3.98968256 0 7 C-0.99 7 -1.98 7 -3 7 C-2.38722388 4.03824877 -1.74627478 2.61941217 0 0 Z " fill="#4E61D1" transform="translate(215,522)"/>
<path d="M0 0 C1.65 0 3.3 0 5 0 C3.84826645 2.46800047 2.95216435 4.04783565 1 6 C0.67 4.02 0.34 2.04 0 0 Z " fill="#BBC3D1" transform="translate(425,481)"/>
</svg>
