<?xml version="1.0" encoding="UTF-8"?>
<svg version="1.1" xmlns="http://www.w3.org/2000/svg" width="128" height="107">
<path d="M0 0 C42.24 0 84.48 0 128 0 C128 35.31 128 70.62 128 107 C85.76 107 43.52 107 0 107 C0 71.69 0 36.38 0 0 Z " fill="#D2D8DD" transform="translate(0,0)"/>
<path d="M0 0 C19.8 0 39.6 0 60 0 C60 17.21517734 60 17.21517734 54.0625 23.25 C53.46856445 23.91346436 52.87462891 24.57692871 52.26269531 25.26049805 C51.0763341 26.58561026 49.87657259 27.89886887 48.66259766 29.19873047 C46.40612605 31.64340705 44.32908712 34.21641076 42.25 36.8125 C40.83333333 38.54166667 39.41666667 40.27083333 38 42 C37.21625 42.9590625 36.4325 43.918125 35.625 44.90625 C34.84125 45.8653125 34.0575 46.824375 33.25 47.8125 C32.55390625 48.66457031 31.8578125 49.51664063 31.140625 50.39453125 C28.77441138 53.27457592 26.38623307 56.13652031 24 59 C32.25 59 40.5 59 49 59 C49.96421875 56.999375 50.9284375 54.99875 51.921875 52.9375 C52.86835162 50.97470556 53.815026 49.01200661 54.76171875 47.04931641 C55.41361774 45.69752784 56.06531491 44.34564194 56.71679688 42.99365234 C60.09991502 35.97316331 63.4863032 28.95640983 67 22 C70.81248426 21.97112764 74.6249407 21.95324508 78.4375 21.9375 C79.52611328 21.92912109 80.61472656 21.92074219 81.73632812 21.91210938 C82.77080078 21.90888672 83.80527344 21.90566406 84.87109375 21.90234375 C85.82943115 21.89710693 86.78776855 21.89187012 87.77514648 21.88647461 C90 22 90 22 91 23 C91.07325168 25.86267567 91.09238205 28.700719 91.0625 31.5625 C91.05798828 32.36880859 91.05347656 33.17511719 91.04882812 34.00585938 C91.03700518 36.00393756 91.01906914 38.00197783 91 40 C90.07058594 39.90976562 89.14117187 39.81953125 88.18359375 39.7265625 C84.11238529 39.61618563 80.90705549 39.81969878 77 41 C73.96872054 44.46906936 72.5147025 48.39959949 70.91748047 52.65625 C69.10501637 57.28628068 66.930533 61.75398661 64.8125 66.25 C64.18746582 67.6436377 64.18746582 67.6436377 63.54980469 69.06542969 C63.14793945 69.93586914 62.74607422 70.80630859 62.33203125 71.703125 C61.80186401 72.87343262 61.80186401 72.87343262 61.26098633 74.06738281 C59.70569703 76.45105562 58.63673858 76.96104793 56 78 C53.3997345 78.24723816 53.3997345 78.24723816 50.42114258 78.24291992 C49.30351028 78.24599655 48.18587799 78.24907318 47.03437805 78.25224304 C45.83322861 78.24505753 44.63207916 78.23787201 43.39453125 78.23046875 C41.54211067 78.22978142 41.54211067 78.22978142 39.65226746 78.2290802 C36.37615068 78.22528688 33.10022862 78.212287 29.82415771 78.19561768 C26.48237897 78.18213254 23.14063309 78.18534202 19.79882812 78.18554688 C17.26822715 78.18063285 14.73762776 78.17480504 12.20703125 78.16796875 C10.99980911 78.16685593 9.79258698 78.1657431 8.54878235 78.16459656 C7.44060654 78.15821671 6.33243073 78.15183685 5.19067383 78.14526367 C4.21012527 78.14145187 3.22957672 78.13764008 2.21931458 78.13371277 C-0 78 -0 78 -1 77 C-2.05108737 70.18488515 -2.60503806 63.74646951 0.9609375 57.64453125 C3.22977549 54.85740188 5.7549187 52.3206359 8.29248047 49.77929688 C11.46790996 46.47038493 14.30117345 42.872718 17.1875 39.3125 C18.37318028 37.86806452 19.55936435 36.42404241 20.74609375 34.98046875 C27.65417318 26.70091252 27.65417318 26.70091252 34 18 C22.78 18 11.56 18 0 18 C0 12.06 0 6.12 0 0 Z " fill="#4159E1" transform="translate(25,18)"/>
<path d="M0 0 C11.22 0 22.44 0 34 0 C32.48068953 3.03862094 31.25835188 5.1067147 29.1796875 7.671875 C28.37724609 8.66767578 28.37724609 8.66767578 27.55859375 9.68359375 C27.00300781 10.36550781 26.44742188 11.04742187 25.875 11.75 C25.31167969 12.44738281 24.74835937 13.14476562 24.16796875 13.86328125 C22.78192264 15.57821965 21.39252792 17.290324 20 19 C19.01 18.34 18.02 17.68 17 17 C17.99 17 18.98 17 20 17 C20 16.34 20 15.68 20 15 C19.34 14.67 18.68 14.34 18 14 C18.66 13.67 19.32 13.34 20 13 C20.66 13.33 21.32 13.66 22 14 C21.67 12.68 21.34 11.36 21 10 C20.67 10.66 20.34 11.32 20 12 C19.34 12 18.68 12 18 12 C17.875 5.25 17.875 5.25 19 3 C22.96 3 26.92 3 31 3 C31 2.34 31 1.68 31 1 C20.77 1 10.54 1 0 1 C0 0.67 0 0.34 0 0 Z " fill="#CAD2E1" transform="translate(25,36)"/>
<path d="M0 0 C0.33 1.32 0.66 2.64 1 4 C0.21625 4.556875 -0.5675 5.11375 -1.375 5.6875 C-4.11729858 7.74353044 -4.11729858 7.74353044 -4.9375 10.4375 C-6.46113507 14.11214929 -8.88805201 15.5501686 -12 18 C-14.38979311 22.77958622 -13 28.65626015 -13 34 C4.82 34.33 22.64 34.66 41 35 C41 35.33 41 35.66 41 36 C33.71578452 36.02312916 26.4315769 36.04091801 19.14733219 36.05181217 C15.76528187 36.05703975 12.3832566 36.06413511 9.0012207 36.07543945 C5.11670223 36.08834267 1.23219403 36.09322924 -2.65234375 36.09765625 C-3.87211411 36.10281754 -5.09188446 36.10797882 -6.34861755 36.11329651 C-8.03024742 36.11340981 -8.03024742 36.11340981 -9.74584961 36.11352539 C-10.73846298 36.115746 -11.73107635 36.11796661 -12.75376892 36.12025452 C-15 36 -15 36 -16 35 C-17.05064524 28.18775186 -17.86785297 21.14593019 -13.72265625 15.2578125 C-11.46592389 12.48712453 -9.0038506 9.94626287 -6.44384766 7.45605469 C-4.11944756 5.11200292 -2.07922999 2.56197626 0 0 Z " fill="#5367CE" transform="translate(40,60)"/>
<path d="M0 0 C0.66 0.33 1.32 0.66 2 1 C-0.31 5.62 -2.62 10.24 -5 15 C-13.58 15 -22.16 15 -31 15 C-29.35 12.69 -27.7 10.38 -26 8 C-25.67 8.66 -25.34 9.32 -25 10 C-25.99 11.485 -25.99 11.485 -27 13 C-21.39 13.33 -15.78 13.66 -10 14 C-10 13.34 -10 12.68 -10 12 C-12.64 12 -15.28 12 -18 12 C-18 11.67 -18 11.34 -18 11 C-15.03 11 -12.06 11 -9 11 C-9 11.66 -9 12.32 -9 13 C-7.68 13 -6.36 13 -5 13 C-5.66 11.35 -6.32 9.7 -7 8 C-7.66 8 -8.32 8 -9 8 C-9 7.34 -9 6.68 -9 6 C-6.69 6 -4.38 6 -2 6 C-2 4.68 -2 3.36 -2 2 C-1.34 2 -0.68 2 0 2 C0 1.34 0 0.68 0 0 Z " fill="#C3CFEB" transform="translate(79,63)"/>
<path d="M0 0 C2.0625 0.4375 2.0625 0.4375 4 1 C3.01 2.32 2.02 3.64 1 5 C1 10.28 1 15.56 1 21 C19.48 21.33 37.96 21.66 57 22 C57 22.33 57 22.66 57 23 C49.58540058 23.02312883 42.17080889 23.04091785 34.75618076 23.05181217 C31.31359652 23.05703982 27.87103688 23.06413531 24.4284668 23.07543945 C20.47444957 23.08834235 16.52044244 23.09322918 12.56640625 23.09765625 C10.70394005 23.10539818 10.70394005 23.10539818 8.80384827 23.11329651 C7.09218727 23.11340981 7.09218727 23.11340981 5.34594727 23.11352539 C4.335569 23.115746 3.32519073 23.11796661 2.28419495 23.12025452 C0 23 0 23 -1 22 C-1.09899523 20.45044441 -1.13079524 18.89646327 -1.1328125 17.34375 C-1.13410156 16.40402344 -1.13539062 15.46429688 -1.13671875 14.49609375 C-1.13285156 13.50738281 -1.12898438 12.51867187 -1.125 11.5 C-1.12886719 10.51128906 -1.13273437 9.52257812 -1.13671875 8.50390625 C-1.13542969 7.56417969 -1.13414063 6.62445313 -1.1328125 5.65625 C-1.13168457 4.78806641 -1.13055664 3.91988281 -1.12939453 3.02539062 C-1 1 -1 1 0 0 Z " fill="#B7C6F5" transform="translate(24,74)"/>
<path d="M0 0 C3.81248426 -0.02887236 7.6249407 -0.04675492 11.4375 -0.0625 C12.52611328 -0.07087891 13.61472656 -0.07925781 14.73632812 -0.08789062 C15.77080078 -0.09111328 16.80527344 -0.09433594 17.87109375 -0.09765625 C18.82943115 -0.10289307 19.78776855 -0.10812988 20.77514648 -0.11352539 C23 0 23 0 24 1 C24.07325168 3.86267567 24.09238205 6.700719 24.0625 9.5625 C24.05798828 10.36880859 24.05347656 11.17511719 24.04882812 12.00585938 C24.03700518 14.00393756 24.01906914 16.00197783 24 18 C19.38 18 14.76 18 10 18 C10 17.67 10 17.34 10 17 C13.96 16.67 17.92 16.34 22 16 C22 11.38 22 6.76 22 2 C20.99839844 2.01160156 19.99679688 2.02320313 18.96484375 2.03515625 C17.62239772 2.04454398 16.27994964 2.05364312 14.9375 2.0625 C12.97103516 2.07990234 12.97103516 2.07990234 10.96484375 2.09765625 C7.1836481 2.00452335 3.72079293 1.61448726 0 1 C0 0.67 0 0.34 0 0 Z " fill="#586ACF" transform="translate(92,40)"/>
<path d="M0 0 C0.66 0.99 1.32 1.98 2 3 C-1.61328125 7.6875 -1.61328125 7.6875 -3 9 C-3.99 9 -4.98 9 -6 9 C-6.2475 9.969375 -6.495 10.93875 -6.75 11.9375 C-7.1625 12.948125 -7.575 13.95875 -8 15 C-10.125 15.875 -10.125 15.875 -12 16 C-9.7757418 12.0625591 -7.20149367 8.6626663 -4.3125 5.1875 C-3.50425781 4.21167969 -2.69601563 3.23585937 -1.86328125 2.23046875 C-1.24839844 1.49441406 -0.63351563 0.75835937 0 0 Z " fill="#C5D2EA" transform="translate(72,48)"/>
<path d="M0 0 C11.22 0 22.44 0 34 0 C32 4 32 4 29 6 C29 5.01 29 4.02 29 3 C29.66 3 30.32 3 31 3 C31 2.34 31 1.68 31 1 C20.77 1 10.54 1 0 1 C0 0.67 0 0.34 0 0 Z " fill="#B2C3F1" transform="translate(25,36)"/>
<path d="M0 0 C0.75 1.75 0.75 1.75 1 4 C-0.8125 6.0625 -0.8125 6.0625 -3 8 C-3.99 9.485 -3.99 9.485 -5 11 C-5.66 11 -6.32 11 -7 11 C-6.67 12.32 -6.34 13.64 -6 15 C-8.375 16.5625 -8.375 16.5625 -11 18 C-11.66 17.67 -12.32 17.34 -13 17 C-12.22914062 16.02417969 -11.45828125 15.04835938 -10.6640625 14.04296875 C-9.65098305 12.75785871 -8.63796544 11.47269991 -7.625 10.1875 C-7.11710937 9.54490234 -6.60921875 8.90230469 -6.0859375 8.24023438 C-5.35117187 7.30727539 -5.35117187 7.30727539 -4.6015625 6.35546875 C-4.15119629 5.78465576 -3.70083008 5.21384277 -3.23681641 4.62573242 C-2.09736659 3.12798345 -1.04389771 1.56584656 0 0 Z " fill="#4C5FCE" transform="translate(54,42)"/>
<path d="M0 0 C0.33 0.99 0.66 1.98 1 3 C1.66 3.33 2.32 3.66 3 4 C2.37351562 4.47050781 1.74703125 4.94101562 1.1015625 5.42578125 C0.28429687 6.04839844 -0.53296875 6.67101563 -1.375 7.3125 C-2.59316406 8.23482422 -2.59316406 8.23482422 -3.8359375 9.17578125 C-6.19779389 10.99480683 -6.19779389 10.99480683 -8 14 C-8.66 13.67 -9.32 13.34 -10 13 C-5.05 6.565 -5.05 6.565 0 0 Z " fill="#C0CFE9" transform="translate(83,34)"/>
<path d="M0 0 C2.0625 0.4375 2.0625 0.4375 4 1 C3.26523437 1.73863281 3.26523437 1.73863281 2.515625 2.4921875 C0.41193936 5.97302817 0.63729194 9.1872623 0.75 13.125 C0.75515625 13.85332031 0.7603125 14.58164063 0.765625 15.33203125 C0.76484806 19.29651368 0.76484806 19.29651368 2 23 C1.01 22.67 0.02 22.34 -1 22 C-1.02887814 18.52085059 -1.04675687 15.04173169 -1.0625 11.5625 C-1.07087891 10.56927734 -1.07925781 9.57605469 -1.08789062 8.55273438 C-1.09111328 7.60849609 -1.09433594 6.66425781 -1.09765625 5.69140625 C-1.10289307 4.81685791 -1.10812988 3.94230957 -1.11352539 3.04125977 C-1 1 -1 1 0 0 Z " fill="#C1CFED" transform="translate(24,74)"/>
<path d="M0 0 C0.91058531 3.07322544 1.08886184 5.80097361 1 9 C0.34 8.67 -0.32 8.34 -1 8 C-1.99 10.31 -2.98 12.62 -4 15 C-4.99 15 -5.98 15 -7 15 C-6.02122064 12.87482158 -5.04196485 10.74986258 -4.0625 8.625 C-3.24458984 6.84996094 -3.24458984 6.84996094 -2.41015625 5.0390625 C-1.62645977 3.3500989 -0.8326798 1.66535959 0 0 Z " fill="#BBC8E7" transform="translate(98,65)"/>
<path d="M0 0 C0.66 0 1.32 0 2 0 C0.65150163 4.35970831 -1.04907846 8.31341438 -3.125 12.375 C-3.66382812 13.43460938 -4.20265625 14.49421875 -4.7578125 15.5859375 C-5.16773437 16.38257812 -5.57765625 17.17921875 -6 18 C-6.58203125 16.1484375 -6.58203125 16.1484375 -7 14 C-6.05988318 12.29883624 -5.05104383 10.63495707 -4 9 C-3.28856912 7.01548229 -2.61008664 5.01797888 -2 3 C-1.34 3 -0.68 3 0 3 C0 2.01 0 1.02 0 0 Z " fill="#C0CDEE" transform="translate(89,42)"/>
<path d="M0 0 C0.33 0 0.66 0 1 0 C0.67 2.97 0.34 5.94 0 9 C-0.99 9.33 -1.98 9.66 -3 10 C-3 10.66 -3 11.32 -3 12 C-3.66 12 -4.32 12 -5 12 C-3.68938409 7.76570244 -2.05643741 3.92592596 0 0 Z " fill="#5667D1" transform="translate(83,58)"/>
<path d="M0 0 C0.33 0 0.66 0 1 0 C1.39253254 4.44870215 0.15305957 7.14243493 -2 11 C-3.65 11 -5.3 11 -7 11 C-6.401875 10.484375 -5.80375 9.96875 -5.1875 9.4375 C-2.4926464 6.43466313 -1.44279381 3.75126391 0 0 Z " fill="#B2C0EE" transform="translate(88,85)"/>
<path d="M0 0 C0.33 0.99 0.66 1.98 1 3 C0.01 4.485 0.01 4.485 -1 6 C-0.34 6 0.32 6 1 6 C1 6.99 1 7.98 1 9 C-0.65 8.67 -2.3 8.34 -4 8 C-2.87548273 5.0280615 -1.77706209 2.66559313 0 0 Z " fill="#C9D1E7" transform="translate(57,66)"/>
<path d="M0 0 C0.99 0 1.98 0 3 0 C2.01 2.97 1.02 5.94 0 9 C-0.95904856 5.16380575 -0.91892116 3.67568464 0 0 Z " fill="#4E60D9" transform="translate(92,71)"/>
<path d="M0 0 C0.33 0.66 0.66 1.32 1 2 C0.22265625 3.7265625 0.22265625 3.7265625 -0.9375 5.625 C-1.618125 6.73875 -2.29875 7.8525 -3 9 C-3.99 8.67 -4.98 8.34 -6 8 C-4.02 5.36 -2.04 2.72 0 0 Z " fill="#B9CAEA" transform="translate(66,55)"/>
<path d="M0 0 C0.33 0 0.66 0 1 0 C1.36923077 5.41538462 1.36923077 5.41538462 -0.5 8.375 C-0.995 8.91125 -1.49 9.4475 -2 10 C-2.66 9.67 -3.32 9.34 -4 9 C-2.68 6.03 -1.36 3.06 0 0 Z " fill="#5264CD" transform="translate(91,41)"/>
</svg>
